<?xml version="1.0" standalone="no"?>
<!DOCTYPE svg PUBLIC "-//W3C//DTD SVG 1.1//EN" "http://www.w3.org/Graphics/SVG/1.1/DTD/svg11.dtd" >
<svg xmlns="http://www.w3.org/2000/svg">
<metadata>Generated by IcoMoon</metadata>
<defs>
<font id="vk-icons" horiz-adv-x="1024">
<font-face units-per-em="1024" ascent="960" descent="-64" />
<missing-glyph horiz-adv-x="1024" />
<glyph unicode="&#x20;" horiz-adv-x="512" d="" />
<glyph unicode="&#xe900;" glyph-name="add_16" d="M576 384v-256c0-35.346-28.654-64-64-64v0c-35.346 0-64 28.654-64 64v256h-256c-35.346 0-64 28.654-64 64v0c0 35.346 28.654 64 64 64h256v256c0 35.346 28.654 64 64 64v0c35.346 0 64-28.654 64-64v-256h256c35.346 0 64-28.654 64-64v0c0-35.346-28.654-64-64-64h-256z" />
<glyph unicode="&#xe903;" glyph-name="add_outline_24" d="M550.4 486.398h307.202c21.207 0 38.398-17.191 38.398-38.398s-17.191-38.398-38.398-38.398h-307.202v-307.207c0-21.206-17.191-38.396-38.396-38.396-0.001 0-0.001 0-0.002 0-21.207 0.001-38.398 17.193-38.398 38.4v307.204h-307.205c-21.207 0-38.398 17.191-38.398 38.398s17.191 38.398 38.398 38.398h307.205v307.204c0 21.207 17.192 38.398 38.398 38.398s38.398-17.192 38.398-38.398v-307.204z" />
<glyph unicode="&#xe905;" glyph-name="airplay_24" d="M803.346 234.667l-71.111 71.111h72.417c9.51 0 12.958 0.99 16.434 2.849s6.205 4.588 8.064 8.064c1.859 3.477 2.849 6.925 2.849 16.434v343.526c0 9.51-0.99 12.958-2.849 16.434s-4.588 6.205-8.064 8.064c-3.477 1.859-6.925 2.849-16.434 2.849h-585.304c-9.51 0-12.958-0.99-16.434-2.849s-6.205-4.588-8.064-8.064c-1.859-3.477-2.849-6.925-2.849-16.434v-343.526c0-9.51 0.99-12.958 2.849-16.434s4.588-6.205 8.064-8.064c3.477-1.859 6.925-2.849 16.434-2.849h72.417l-71.111-71.111h-4.595c-38.038 0-51.832 3.961-65.738 11.398s-24.82 18.351-32.257 32.257c-7.437 13.906-11.398 27.7-11.398 65.738v335.882c0 38.038 3.961 51.832 11.398 65.738s18.351 24.82 32.257 32.257c13.906 7.437 27.7 11.398 65.738 11.398h591.882c38.038 0 51.832-3.961 65.738-11.398s24.82-18.351 32.257-32.257c7.437-13.906 11.398-27.7 11.398-65.738v-335.882c0-38.038-3.961-51.832-11.398-65.738s-18.351-24.82-32.257-32.257c-13.906-7.437-27.7-11.398-65.738-11.398h-4.595zM249.752 143.085l247.163 247.163c8.331 8.331 21.839 8.331 30.17 0l247.163-247.163c8.331-8.331 8.331-21.839 0-30.17-4.001-4.001-9.427-6.248-15.085-6.248h-494.327c-11.782 0-21.333 9.551-21.333 21.333 0 5.658 2.248 11.084 6.248 15.085z" />
<glyph unicode="&#xe906;" glyph-name="article_24" d="M853.333 490.667c23.564 0 42.667-19.103 42.667-42.667v0-21.333c0-23.564-19.103-42.667-42.667-42.667v0h-682.667c-23.564 0-42.667 19.103-42.667 42.667v0 21.333c0 23.564 19.103 42.667 42.667 42.667v0h682.667zM853.333 725.333c23.564 0 42.667-19.103 42.667-42.667v0-21.333c0-23.564-19.103-42.667-42.667-42.667v0h-682.667c-23.564 0-42.667 19.103-42.667 42.667v0 21.333c0 23.564 19.103 42.667 42.667 42.667v0h682.667zM170.667 149.333c-23.564 0-42.667 19.103-42.667 42.667v0 21.333c0 23.564 19.103 42.667 42.667 42.667v0h384c23.564 0 42.667-19.103 42.667-42.667v0-21.333c0-23.564-19.103-42.667-42.667-42.667v0h-384z" />
<glyph unicode="&#xe908;" glyph-name="article_box_outline_20" d="M354.115 857.6h315.77c73.423 0 109.157-6.9 146.298-26.764 33.809-18.081 60.572-44.844 78.653-78.653 19.863-37.141 26.764-72.875 26.764-146.298v-315.77c0-73.423-6.9-109.157-26.764-146.298-18.081-33.809-44.844-60.572-78.653-78.653-37.141-19.863-72.875-26.764-146.298-26.764h-315.77c-73.423 0-109.157 6.9-146.298 26.764-33.809 18.081-60.572 44.844-78.653 78.653-19.863 37.141-26.764 72.875-26.764 146.298v315.77c0 73.423 6.9 109.157 26.764 146.298 18.081 33.809 44.844 60.572 78.653 78.653 37.141 19.863 72.875 26.764 146.298 26.764zM354.115 780.8c-61.829 0-85.585-4.588-110.079-17.687-20.425-10.923-36.225-26.724-47.149-47.149-13.1-24.494-17.687-48.25-17.687-110.079v-315.77c0-61.829 4.588-85.585 17.687-110.079 10.923-20.425 26.724-36.225 47.149-47.149 24.494-13.1 48.25-17.687 110.079-17.687h315.77c61.829 0 85.585 4.588 110.079 17.687 20.425 10.923 36.225 26.724 47.149 47.149 13.1 24.494 17.687 48.25 17.687 110.079v315.77c0 61.829-4.588 85.585-17.687 110.079-10.923 20.425-26.724 36.225-47.149 47.149-24.494 13.1-48.25 17.687-110.079 17.687h-315.77zM345.6 652.8h332.8c21.208 0 38.4-17.192 38.4-38.4s-17.192-38.4-38.4-38.4h-332.8c-21.208 0-38.4 17.192-38.4 38.4s17.192 38.4 38.4 38.4zM345.6 486.4h332.8c21.208 0 38.4-17.192 38.4-38.4s-17.192-38.4-38.4-38.4h-332.8c-21.208 0-38.4 17.192-38.4 38.4s17.192 38.4 38.4 38.4zM345.6 320h230.4c21.208 0 38.4-17.192 38.4-38.4s-17.192-38.4-38.4-38.4h-230.4c-21.208 0-38.4 17.192-38.4 38.4s17.192 38.4 38.4 38.4z" />
<glyph unicode="&#xe909;" glyph-name="article_outline_20" d="M896 691.2c0 21.208-17.484 38.4-38.085 38.4h-691.83c-21.034 0-38.085-17.044-38.085-38.4v0c0-21.208 17.484-38.4 38.085-38.4h691.83c21.034 0 38.085 17.044 38.085 38.4v0zM896 435.2c0 21.208-17.484 38.4-38.085 38.4h-691.83c-21.034 0-38.085-17.044-38.085-38.4v0c0-21.208 17.484-38.4 38.085-38.4h691.83c21.034 0 38.085 17.044 38.085 38.4v0zM128 179.2c0-21.208 17.278-38.4 38.663-38.4h460.274c21.353 0 38.663 17.044 38.663 38.4v0c0 21.208-17.278 38.4-38.663 38.4h-460.274c-21.353 0-38.663-17.044-38.663-38.4v0z" />
<glyph unicode="&#xe90a;" glyph-name="artist_24" d="M645.677 357.39c-87.707-22.040-144.344-95.186-144.344-181.402 0-25.183 3.742-48.373 10.585-69.321h-341.251c-23.564 0-42.667 19.103-42.667 42.667v42.667c0 149.333 227.532 192 341.511 192 47.294 0 114.139-7.346 176.166-26.61zM640.266 618.667c0-94.293-76.413-170.667-170.755-170.667s-170.755 76.373-170.755 170.667c0 94.293 76.413 170.667 170.755 170.667s170.755-76.373 170.755-170.667zM832.159 249.88c0-118.94-31.805-147.512-120.95-162.984-47.353-8.218-103.208 15.173-103.208 89.091 0 36.108 22.825 70.397 70.060 79.357 36.074 6.843-13.48-1.661 68.129 13.336 19.812 3.641 22.057 10.658 22.057 25.608 0 7.507-0.174 13.584-0.411 58.638v121.668c0 0-0.155 57.998 0 86.997 0.185 34.684 26.669 47.43 83.151 58.723 0 0 64.604 10.565 111.916 19.059 10.47 1.88 18.462-1.978 18.462-13.864v-109.124c0-11.72-4.794-17.025-16.794-19.134-47.872-8.411-117.031-20.381-117.031-20.381-10.643-2.588-15.517-10.003-15.517-20.663l0.136-206.329z" />
<glyph unicode="&#xe90b;" glyph-name="attach_24" d="M782.405 349.985l-194.432-193.973c-76.978-76.796-201.637-76.649-278.434 0.329-0.836 0.841-0.836 0.841-1.665 1.689-80.822 82.989-80.52 215.351 0.681 297.97l291.289 296.377c47.064 47.886 124.037 48.553 171.923 1.489 1.022-1.005 2.027-2.028 3.013-3.068 50.044-52.793 49.497-133.687-0.037-184.547l-293.473-301.323c-17.159-17.618-45.008-19.003-63.83-3.174l-3.147 2.647c-16.957 14.261-19.143 39.567-4.883 56.525 0.523 0.621 1.064 1.227 1.623 1.815l197.651 207.98c14.61 15.373 13.991 39.679-1.382 54.288s-39.679 13.991-54.288-1.382l-197.651-207.98c-1.63-1.715-3.208-3.479-4.731-5.29-41.56-49.419-35.19-123.173 14.23-164.733l3.147-2.647c49.621-41.73 123.041-38.080 168.278 8.367l293.473 301.323c78.297 80.391 79.161 208.257 1.959 289.699-2.811 2.966-4.451 4.635-6.119 6.275-78.137 76.796-203.735 75.708-280.53-2.429l-291.289-296.377c-110.473-112.403-110.885-292.48-0.926-405.386 1.152-1.179 1.152-1.179 2.314-2.348 106.753-107.006 280.039-107.211 387.045-0.457l194.432 193.973c15.014 14.978 15.043 39.292 0.064 54.306s-39.292 15.043-54.306 0.064z" />
<glyph unicode="&#xe90c;" glyph-name="attach_outline_28" d="M782.703 360.872l-196.927-191.283c-81.732-79.389-212.062-78.45-292.642 2.108-82.655 82.634-82.673 216.627-0.039 299.283 0.12 0.12 108.619 107.605 295.73 292.967 51.456 50.975 134.492 50.584 185.467-0.872 52.113-53.521 51.79-137.888-0.484-190.146l-297.357-297.262c-19.049-19.043-49.429-20.55-70.269-3.486l-4.89 4.004c-18.658 15.277-21.398 42.786-6.121 61.444 0.804 0.982 1.65 1.928 2.537 2.837l199.948 204.85c12.697 13.009 12.445 33.847-0.564 46.544s-33.847 12.445-46.544-0.564l-199.948-204.85c-2.223-2.277-4.346-4.651-6.362-7.113-38.31-46.787-31.437-115.772 15.35-154.081l4.89-4.004c47.011-38.493 115.543-35.093 158.513 7.864l297.357 297.262c77.808 77.783 78.289 203.36 0.908 282.828-76.76 77.486-201.476 78.072-278.76 1.511-206.975-205.039-295.705-292.94-295.956-293.191-108.338-108.366-108.316-284.040 0.051-392.378 106.024-105.997 277.509-107.232 385.050-2.774l196.927 191.283c13.039 12.666 13.342 33.504 0.677 46.543s-33.504 13.342-46.543 0.677z" />
<glyph unicode="&#xe90d;" glyph-name="attachments_24" d="M853.333 192.001v479.412c0 65.125-52.795 117.92-117.92 117.92h-479.412c0.23 47.168 38.537 85.333 85.759 85.333h446.827c82.887 0 150.080-67.193 150.080-150.080v-446.827c0-47.222-38.166-85.529-85.333-85.759zM682.24 704h-511.147c-47.364 0-85.76-38.396-85.76-85.76v-511.147c0-47.364 38.396-85.76 85.76-85.76h511.147c47.364 0 85.76 38.396 85.76 85.76v511.147c0 47.364-38.396 85.76-85.76 85.76zM298.667 309.333l91.429-107.022 128 160.356 141.736-183.731c6.199-8.036 4.71-19.576-3.326-25.776-3.216-2.481-7.163-3.826-11.225-3.826h-436.378c-10.149 0-18.377 8.228-18.377 18.377 0 4.173 1.42 8.222 4.027 11.48l104.114 130.143z" />
<glyph unicode="&#xe90f;" glyph-name="back_24" d="M332.8 490.667l209.067 209.067c16.495 16.495 16.495 43.238 0 59.733v0c-16.495 16.495-43.238 16.495-59.733 0l-281.297-281.297c-16.662-16.662-16.662-43.677 0-60.34l281.297-281.297c16.495-16.495 43.238-16.495 59.733 0v0c16.495 16.495 16.495 43.238 0 59.733l-209.067 209.067h520.533c23.564 0 42.667 19.103 42.667 42.667v0c0 23.564-19.103 42.667-42.667 42.667h-520.533z" />
<glyph unicode="&#xe910;" glyph-name="backspace_28" d="M329.143 777.143c-25.234 0-44.983-12.8-58.149-32.183l-197.851-296.96 197.851-296.594c13.166-19.383 32.914-32.549 58.149-32.549h511.451c60.896 0 110.263 49.366 110.263 110.263v437.76c0 60.896-49.366 110.263-110.263 110.263h-511.451zM690.651 290.926l-105.509 105.509-105.509-105.509c-14.239-14.239-37.326-14.239-51.566 0v0c-14.239 14.239-14.239 37.326 0 51.566l105.509 105.509-105.509 105.509c-14.239 14.239-14.239 37.326 0 51.566v0c14.239 14.239 37.326 14.239 51.566 0l105.509-105.509 105.509 105.509c14.239 14.239 37.326 14.239 51.566 0v0c14.239-14.239 14.239-37.326 0-51.566l-105.509-105.509 105.509-105.509c14.239-14.239 14.239-37.326 0-51.566v0c-14.239-14.239-37.326-14.239-51.566 0z" />
<glyph unicode="&#xe911;" glyph-name="browser_back_24" d="M369.307 448l303.88-303.88c18.329-18.329 18.329-48.045 0-66.374s-48.045-18.329-66.374 0l-337.067 337.067c-18.329 18.329-18.329 48.045 0 66.374l337.067 337.067c18.329 18.329 48.045 18.329 66.374 0s18.329-48.045 0-66.374l-303.88-303.88z" />
<glyph unicode="&#xe912;" glyph-name="browser_forward_24" d="M654.693 448l-303.88 303.88c-18.329 18.329-18.329 48.045 0 66.374s48.045 18.329 66.374 0l337.067-337.067c18.329-18.329 18.329-48.045 0-66.374l-337.067-337.067c-18.329-18.329-48.045-18.329-66.374 0s-18.329 48.045 0 66.374l303.88 303.88z" />
<glyph unicode="&#xe913;" glyph-name="bug_24" d="M810.667 618.667h-77.227c-19.2 33.28-45.653 61.867-77.653 83.627l39.467 39.467c16.613 16.613 16.613 43.547 0 60.16v0c-16.613 16.613-43.547 16.613-60.16 0l-62.507-62.507c-19.627 4.693-39.68 7.253-60.587 7.253s-40.96-2.56-60.16-7.253l-62.864 62.576c-16.662 16.586-43.605 16.555-60.229-0.069l-0.003-0.003c-16.626-16.626-16.668-43.57-0.093-60.247l39.135-39.377c-31.573-21.76-58.027-50.347-77.227-83.627h-77.227c-23.564 0-42.667-19.103-42.667-42.667v0c0-23.564 19.103-42.667 42.667-42.667h46.507c-2.133-14.080-3.84-28.16-3.84-42.667v-42.667h-42.667c-23.564 0-42.667-19.103-42.667-42.667v0c0-23.564 19.103-42.667 42.667-42.667h42.667v-42.667c0-14.507 1.707-28.587 3.84-42.667h-46.507c-23.564 0-42.667-19.103-42.667-42.667v0c0-23.564 19.103-42.667 42.667-42.667h77.227c44.373-76.373 126.72-128 221.44-128s177.067 51.627 221.44 128h77.227c23.564 0 42.667 19.103 42.667 42.667v0c0 23.564-19.103 42.667-42.667 42.667h-46.507c2.133 14.080 3.84 28.16 3.84 42.667v42.667h42.667c23.564 0 42.667 19.103 42.667 42.667v0c0 23.564-19.103 42.667-42.667 42.667h-42.667v42.667c0 14.507-1.707 28.587-3.84 42.667h46.507c23.564 0 42.667 19.103 42.667 42.667v0c0 23.564-19.103 42.667-42.667 42.667zM554.667 277.333h-85.333c-23.564 0-42.667 19.103-42.667 42.667v0c0 23.564 19.103 42.667 42.667 42.667h85.333c23.564 0 42.667-19.103 42.667-42.667v0c0-23.564-19.103-42.667-42.667-42.667zM554.667 448h-85.333c-23.564 0-42.667 19.103-42.667 42.667v0c0 23.564 19.103 42.667 42.667 42.667h85.333c23.564 0 42.667-19.103 42.667-42.667v0c0-23.564-19.103-42.667-42.667-42.667z" />
<glyph unicode="&#xe914;" glyph-name="calendar_outline_20" d="M665.6 729.6h-307.2v-13.899c0-8.4-1.545-14.852-4.445-20.275s-7.157-9.68-12.58-12.58c-5.423-2.9-11.875-4.445-20.275-4.445h-2.199c-8.4 0-14.852 1.545-20.275 4.445s-9.68 7.157-12.58 12.58c-2.9 5.423-4.445 11.875-4.445 20.275v13.53c-29.344-1.081-43.115-4.652-57.209-12.189-14.167-7.577-25.056-18.466-32.633-32.633-9.296-17.382-12.558-34.274-12.558-80.497v-27.911h665.6v27.911c0 46.223-3.262 63.115-12.558 80.497-7.577 14.167-18.466 25.056-32.633 32.633-14.094 7.537-27.865 11.108-57.209 12.189v-13.53c0-8.4-1.545-14.852-4.445-20.275s-7.157-9.68-12.58-12.58c-5.423-2.9-11.875-4.445-20.275-4.445h-2.199c-8.4 0-14.852 1.545-20.275 4.445s-9.68 7.157-12.58 12.58c-2.9 5.423-4.445 11.875-4.445 20.275v13.899zM665.6 806.4v13.899c0 8.4 1.545 14.852 4.445 20.275s7.157 9.68 12.58 12.58c5.423 2.9 11.875 4.445 20.275 4.445h2.199c8.4 0 14.852-1.545 20.275-4.445s9.68-7.157 12.58-12.58c2.9-5.423 4.445-11.875 4.445-20.275v-14.262c42.876-1.463 67.727-7.528 93.428-21.273 27.551-14.735 49.403-36.586 64.138-64.138 16.060-30.029 21.635-58.899 21.635-116.716v-311.823c0-57.817-5.575-86.687-21.635-116.716-14.735-27.551-36.586-49.403-64.138-64.138-30.029-16.060-58.899-21.635-116.716-21.635h-414.223c-57.817 0-86.687 5.575-116.716 21.635-27.551 14.735-49.403 36.586-64.138 64.138-16.060 30.029-21.635 58.899-21.635 116.716v311.823c0 57.817 5.575 86.687 21.635 116.716 14.735 27.551 36.586 49.403 64.138 64.138 25.701 13.745 50.552 19.81 93.428 21.273v14.262c0 8.4 1.545 14.852 4.445 20.275s7.157 9.68 12.58 12.58c5.423 2.9 11.875 4.445 20.275 4.445h2.199c8.4 0 14.852-1.545 20.275-4.445s9.68-7.157 12.58-12.58c2.9-5.423 4.445-11.875 4.445-20.275v-13.899h307.2zM844.8 499.2h-665.6v-207.111c0-46.223 3.262-63.115 12.558-80.497 7.577-14.167 18.466-25.056 32.633-32.633 17.382-9.296 34.274-12.558 80.497-12.558h414.223c46.223 0 63.115 3.262 80.497 12.558 14.167 7.577 25.056 18.466 32.633 32.633 9.296 17.382 12.558 34.274 12.558 80.497v207.111z" />
<glyph unicode="&#xe915;" glyph-name="camera_24" d="M410.834 810.667h202.332c29.432 0 46.681-8.567 63.585-28.426 0.868-1.020 15.12-18.742 30.637-37.896s47.118-40.345 76.127-40.345h19.394c93.091 0 135.758-56.889 135.758-151.704v-293.926c0-83.784-69.464-151.704-155.152-151.704h-543.030c-85.688 0-155.152 67.92-155.152 151.704v293.926c0 94.815 42.667 151.704 135.758 151.704h19.394c29.009 0 60.61 21.191 76.127 40.345s29.769 36.876 30.637 37.896c16.903 19.859 34.153 28.426 63.585 28.426zM298.667 426.667c0-117.76 95.573-213.333 213.333-213.333s213.333 95.573 213.333 213.333c0 117.76-95.573 213.333-213.333 213.333s-213.333-95.573-213.333-213.333zM366.933 426.666c0 80.127 64.94 145.067 145.067 145.067s145.067-64.94 145.067-145.067c0-80.127-64.94-145.067-145.067-145.067s-145.067 64.94-145.067 145.067z" />
<glyph unicode="&#xe919;" glyph-name="camera_outline_24" d="M608.128 832c38.528 0 65.877-12.373 89.643-40.405 0.384-0.427 20.139-25.173 29.696-36.992 3.285-4.096 18.389-7.936 42.453-7.936h18.432c99.029 0 167.381-70.997 167.381-180.267v-273.664c0-98.56-94.592-186.069-204.203-186.069h-479.061c-109.611 0-204.203 87.467-204.203 186.069v273.664c0 109.227 68.352 180.267 167.381 180.267h18.432c24.064 0 39.168 3.84 42.453 7.936 9.557 11.819 29.312 36.565 29.696 36.992 23.765 27.989 51.115 40.405 89.643 40.405h192.256zM608.128 755.2h-192.256c-16.213 0-22.059-2.645-31.147-13.355 0.555 0.597-18.133-22.699-28.501-35.541-22.4-27.733-56.576-36.437-102.144-36.437h-18.432c-55.936 0-90.581-35.968-90.581-103.467v-273.664c0-54.741 58.923-109.269 127.403-109.269h479.061c68.48 0 127.403 54.528 127.403 109.269v273.664c0 67.499-34.645 103.467-90.581 103.467h-18.432c-45.568 0-79.787 8.747-102.144 36.437-10.368 12.8-29.013 36.139-28.544 35.541-9.045 10.667-14.933 13.355-31.147 13.355zM324.267 443.733c0 103.682 84.051 187.733 187.733 187.733s187.733-84.051 187.733-187.733v0c0-103.682-84.051-187.733-187.733-187.733s-187.733 84.051-187.733 187.733v0zM401.067 443.733c0-61.267 49.667-110.933 110.933-110.933s110.933 49.667 110.933 110.933v0c0 61.267-49.667 110.933-110.933 110.933s-110.933-49.667-110.933-110.933v0z" />
<glyph unicode="&#xe91b;" glyph-name="cancel_16" d="M512 529.459l221.671 221.671c22.494 22.494 58.964 22.494 81.459 0s22.494-58.965 0-81.459l-221.671-221.671 221.671-221.671c22.494-22.494 22.494-58.964 0-81.459s-58.964-22.494-81.459 0l-221.671 221.671-221.671-221.671c-22.494-22.494-58.965-22.494-81.459 0s-22.494 58.964 0 81.459l221.671 221.671-221.671 221.671c-22.494 22.494-22.494 58.965 0 81.459s58.965 22.494 81.459 0l221.671-221.671z" />
<glyph unicode="&#xe91e;" glyph-name="cancel_circle_outline_16" d="M512 0c-247.424 0-448 200.576-448 448s200.576 448 448 448 448-200.576 448-448-200.576-448-448-448zM512 96c194.432 0 352 157.568 352 352s-157.568 352-352 352-352-157.568-352-352 157.568-352 352-352zM512 515.84l94.080 94.080c18.752 18.752 49.088 18.752 67.84 0s18.752-49.088 0-67.84l-94.080-94.080 94.080-94.080c18.752-18.752 18.752-49.088 0-67.84s-49.088-18.752-67.84 0l-94.080 94.080-94.080-94.080c-18.752-18.752-49.088-18.752-67.84 0s-18.752 49.088 0 67.84l94.080 94.080-94.080 94.080c-18.752 18.752-18.752 49.088 0 67.84s49.088 18.752 67.84 0l94.080-94.080z" />
<glyph unicode="&#xe91f;" glyph-name="cancel_outline_28" d="M563.72 448l181.019-181.019c14.282-14.282 14.282-37.438 0-51.72s-37.438-14.282-51.72 0l-181.019 181.019-181.019-181.019c-14.282-14.282-37.438-14.282-51.72 0s-14.282 37.438 0 51.72l181.019 181.019-181.019 181.019c-14.282 14.282-14.282 37.438 0 51.72s37.438 14.282 51.72 0l181.019-181.019 181.019 181.019c14.282 14.282 37.438 14.282 51.72 0s14.282-37.438 0-51.72l-181.019-181.019z" />
<glyph unicode="&#xe920;" glyph-name="check_circle_16" d="M512 0c-247.424 0-448 200.576-448 448s200.576 448 448 448 448-200.576 448-448-200.576-448-448-448zM383.744 451.968c-19.84 17.536-50.176 15.68-67.712-4.224-17.536-19.84-15.68-50.176 4.224-67.712l93.44-82.56c27.84-24.512 70.272-21.76 94.848 6.016l2.752 3.2 185.792 240c16.256 20.864 12.416 51.008-8.576 67.2-20.992 16.32-51.2 12.48-67.392-8.512l-167.040-215.68-70.4 62.208z" />
<glyph unicode="&#xe921;" glyph-name="check_circle_outline_16" d="M512 0c-247.424 0-448 200.576-448 448s200.576 448 448 448 448-200.576 448-448-200.576-448-448-448zM512 96c194.432 0 352 157.568 352 352s-157.568 352-352 352-352-157.568-352-352 157.568-352 352-352zM383.744 451.968l71.68-63.168 179.456 217.728c16.96 20.48 47.232 23.36 67.648 6.528 20.48-16.96 23.36-47.232 6.528-67.648l-198.656-240.64c-0.64-0.896-0.64-0.896-1.472-1.792-24.512-27.776-67.008-30.464-94.848-5.888l-93.76 82.944c-19.84 17.536-21.76 47.872-4.224 67.712s47.872 21.76 67.712 4.224z" />
<glyph unicode="&#xe922;" glyph-name="chevron_16" d="M590.542 448l-215.271 215.271c-22.494 22.494-22.494 58.965 0 81.459s58.965 22.494 81.459 0l256-256c22.494-22.494 22.494-58.965 0-81.459l-256-256c-22.494-22.494-58.965-22.494-81.459 0s-22.494 58.964 0 81.459l215.271 215.271z" />
<glyph unicode="&#xe923;" glyph-name="chevron_24" d="M371.446 631.22c-16.631 16.631-16.54 43.686 0.013 60.239l3.748 3.748c16.638 16.638 43.502 16.75 60.333-0.082l216.918-216.918c16.683-16.683 16.831-43.584 0-60.415l-216.918-216.918c-16.683-16.683-43.78-16.635-60.333-0.082l-3.748 3.748c-16.638 16.638-16.781 43.471-0.013 60.239l183.22 183.22-183.22 183.22z" />
<glyph unicode="&#xe924;" glyph-name="chevron_back_28" d="M313.076 486.79l308.639 308.639c20.198 20.198 52.945 20.198 73.143 0v0c20.198-20.198 20.198-52.945 0-73.143l-274.286-274.286 274.286-274.286c20.198-20.198 20.198-52.945 0-73.143v0c-20.198-20.198-52.945-20.198-73.143 0l-308.639 308.639c-21.423 21.423-21.423 56.157 0 77.58z" />
<glyph unicode="&#xe925;" glyph-name="clear_16" d="M430.632 447.904l-157.806-157.983c-22.494-22.494-22.494-58.965 0-81.459s58.965-22.494 81.459 0l157.76 157.937 157.76-157.937c22.494-22.494 58.964-22.494 81.459 0s22.494 58.964 0 81.459l-157.806 157.983 157.806 157.983c22.494 22.494 22.494 58.965 0 81.459s-58.965 22.494-81.459 0l-157.76-157.937-157.76 157.937c-22.494 22.494-58.965 22.494-81.459 0s-22.494-58.965 0-81.459l157.806-157.983zM512-64c-282.77 0-512 229.23-512 512s229.23 512 512 512c282.77 0 512-229.23 512-512s-229.23-512-512-512z" />
<glyph unicode="&#xe926;" glyph-name="coins_24" d="M172.661 471.193c77.956-91.899 200.954-151.193 339.339-151.193s261.383 59.294 339.339 151.193c1.318-7.618 1.994-15.356 1.994-23.193 0-117.821-152.82-213.333-341.333-213.333s-341.333 95.513-341.333 213.333c0 7.837 0.676 15.575 1.994 23.193zM172.661 300.526c77.956-91.899 200.954-151.193 339.339-151.193s261.383 59.294 339.339 151.193c1.318-7.618 1.994-15.356 1.994-23.193 0-117.821-152.82-213.333-341.333-213.333s-341.333 95.513-341.333 213.333c0 7.837 0.676 15.575 1.994 23.193zM512 405.333c-188.513 0-341.333 95.513-341.333 213.333s152.82 213.333 341.333 213.333c188.513 0 341.333-95.513 341.333-213.333s-152.82-213.333-341.333-213.333z" />
<glyph unicode="&#xe927;" glyph-name="comment_24" d="M554.667 234.731l-158.703-158.75c-12.495-12.499-32.756-12.502-45.255-0.007-6.003 6.001-9.376 14.142-9.376 22.631v136.126h-85.333c-47.128 0-85.333 38.205-85.333 85.333v341.275c0 47.128 38.205 85.333 85.333 85.333h512c47.128 0 85.333-38.205 85.333-85.333v-341.275c0-47.128-38.205-85.333-85.333-85.333h-213.333z" />
<glyph unicode="&#xe928;" glyph-name="comment_outline_24" d="M587.348 215.621c10.889 9.528 24.866 14.779 39.335 14.779h162.651c42.792 0 68.267 25.474 68.267 68.267v341.333c0 42.792-25.474 68.267-68.267 68.267h-512c-42.792 0-68.267-25.474-68.267-68.267v-341.333c0-42.792 25.474-68.267 68.267-68.267h106.624c29.837-8.606 29.837-8.606 38.443-38.443v-120.685l164.948 144.348zM376.96-1.387c-20.139 15.104-31.36 41.754-31.36 65.387v89.6h-68.267c-85.208 0-145.067 59.859-145.067 145.067v341.333c0 85.208 59.859 145.067 145.067 145.067h512c85.208 0 145.067-59.859 145.067-145.067v-341.333c0-85.208-59.859-145.067-145.067-145.067h-156.238l-158.921-139.056c-31.268-30.669-67.803-37.988-97.214-15.931z" />
<glyph unicode="&#xe929;" glyph-name="community_name_20" d="M665.6 678.4c-21.208 0-38.4 17.192-38.4 38.4s17.192 38.4 38.4 38.4h53.511c57.817 0 86.687-5.575 116.716-21.635 27.551-14.735 49.403-36.586 64.138-64.138 16.060-30.029 21.635-58.899 21.635-116.716v-260.623c0-57.817-5.575-86.687-21.635-116.716-14.735-27.551-36.586-49.403-64.138-64.138-30.029-16.060-58.899-21.635-116.716-21.635h-414.223c-57.817 0-86.687 5.575-116.716 21.635-27.551 14.735-49.403 36.586-64.138 64.138-16.060 30.029-21.635 58.899-21.635 116.716v260.623c0 57.817 5.575 86.687 21.635 116.716 14.735 27.551 36.586 49.403 64.138 64.138 30.029 16.060 58.899 21.635 116.716 21.635h53.511c21.208 0 38.4-17.192 38.4-38.4s-17.192-38.4-38.4-38.4h-53.511c-46.223 0-63.115-3.262-80.497-12.558-14.167-7.577-25.056-18.466-32.633-32.633-9.296-17.382-12.558-34.274-12.558-80.497v-260.623c0-46.223 3.262-63.115 12.558-80.497 7.577-14.167 18.466-25.056 32.633-32.633 17.382-9.296 34.274-12.558 80.497-12.558h414.223c46.223 0 63.115 3.262 80.497 12.558 14.167 7.577 25.056 18.466 32.633 32.633 9.296 17.382 12.558 34.274 12.558 80.497v260.623c0 46.223-3.262 63.115-12.558 80.497-7.577 14.167-18.466 25.056-32.633 32.633-17.382 9.296-34.274 12.558-80.497 12.558h-53.511zM550.4 691.2c0-21.208-17.192-38.4-38.4-38.4s-38.4 17.192-38.4 38.4v128c0 21.208 17.192 38.4 38.4 38.4s38.4-17.192 38.4-38.4v-128zM345.6 537.6h332.8c21.208 0 38.4-17.192 38.4-38.4s-17.192-38.4-38.4-38.4h-332.8c-21.208 0-38.4 17.192-38.4 38.4s17.192 38.4 38.4 38.4zM345.6 371.2h230.4c21.208 0 38.4-17.192 38.4-38.4s-17.192-38.4-38.4-38.4h-230.4c-21.208 0-38.4 17.192-38.4 38.4s17.192 38.4 38.4 38.4z" />
<glyph unicode="&#xe92a;" glyph-name="copy_24" d="M170.667 192.001c-47.168 0.23-85.333 38.537-85.333 85.759v446.827c0 82.887 67.193 150.080 150.080 150.080h446.827c47.222 0 85.529-38.166 85.759-85.333h-479.412c-65.125 0-117.92-52.795-117.92-117.92v-479.412zM341.76 704h511.147c47.364 0 85.76-38.396 85.76-85.76v-511.147c0-47.364-38.396-85.76-85.76-85.76h-511.147c-47.364 0-85.76 38.396-85.76 85.76v511.147c0 47.364 38.396 85.76 85.76 85.76zM384 618.667c-23.564 0-42.667-19.103-42.667-42.667v-426.667c0-23.564 19.103-42.667 42.667-42.667h426.667c23.564 0 42.667 19.103 42.667 42.667v426.667c0 23.564-19.103 42.667-42.667 42.667h-426.667z" />
<glyph unicode="&#xe92b;" glyph-name="delete_24" d="M362.667 64h298.667c58.91 0 106.667 47.756 106.667 106.667v490.667h-512v-490.667c0-58.91 47.756-106.667 106.667-106.667zM374.083 789.333c14.755 25.506 42.332 42.667 73.917 42.667h128c31.585 0 59.163-17.16 73.917-42.667h118.083c23.564 0 42.667-19.103 42.667-42.667v-32c0-5.891-4.776-10.667-10.667-10.667h-576c-5.891 0-10.667 4.776-10.667 10.667v32c0 23.564 19.103 42.667 42.667 42.667h118.083z" />
<glyph unicode="&#xe92c;" glyph-name="delete_28" d="M365.16 45.714h293.68c60.288 0 109.16 48.873 109.16 109.16v512.554h-512v-512.554c0-60.288 48.873-109.16 109.16-109.16zM349.651 795.429c7.982 31.528 36.542 54.857 70.552 54.857h183.596c34.009 0 62.57-23.329 70.552-54.857h84.508c25.247 0 45.714-20.467 45.714-45.714v-35.101c0-5.861-4.752-10.613-10.613-10.613h-563.917c-5.861 0-10.613 4.752-10.613 10.613v35.101c0 25.247 20.467 45.714 45.714 45.714h84.508z" />
<glyph unicode="&#xe92d;" glyph-name="delete_36" d="M382.081 846.222c17.884 33.833 53.432 56.889 94.364 56.889h71.111c40.932 0 76.479-23.056 94.364-56.889h168.747c23.564 0 42.667-19.103 42.667-42.667v-32c0-5.891-4.776-10.667-10.667-10.667h-661.333c-5.891 0-10.667 4.776-10.667 10.667v32c0 23.564 19.103 42.667 42.667 42.667h168.747zM213.333 704h597.333l-48.153-584.754c-4.556-55.329-50.791-97.913-106.307-97.913h-288.413c-55.516 0-101.751 42.584-106.307 97.913l-48.153 584.754zM673.691 617.899c-15.661 1.233-29.356-10.464-30.588-26.125l-34.592-439.53c-1.233-15.661 10.464-29.356 26.125-30.588s29.356 10.464 30.588 26.125l34.592 439.53c1.233 15.661-10.464 29.356-26.125 30.588zM512 618.667c-15.709 0-28.444-12.735-28.444-28.444v-440.889c0-15.709 12.735-28.444 28.444-28.444s28.444 12.735 28.444 28.444v440.889c0 15.709-12.735 28.444-28.444 28.444zM350.191 617.899c-15.661-1.233-27.358-14.927-26.125-30.588l34.592-439.53c1.233-15.661 14.927-27.358 30.588-26.125s27.358 14.927 26.125 30.588l-34.592 439.53c-1.233 15.661-14.927 27.358-30.588 26.125z" />
<glyph unicode="&#xe92e;" glyph-name="discussions_24" d="M810.667 661.333v-255.36c0-71.046-57.594-128.64-128.64-128.64h-383.36v-63.68c0-35.523 28.797-64.32 64.32-64.32h405.013l134.066-134.066c8.373-8.373 21.948-8.373 30.321 0 4.021 4.021 6.28 9.474 6.28 15.16v566.586c0 35.523-28.797 64.32-64.32 64.32h-63.68zM639.573 832h-489.92c-35.523 0-64.32-28.797-64.32-64.32v-523.919c0-11.841 9.599-21.44 21.44-21.44 5.686 0 11.14 2.259 15.16 6.28l134.066 134.066h405.013c35.523 0 64.32 28.797 64.32 64.32v319.253c0 47.364-38.396 85.76-85.76 85.76z" />
<glyph unicode="&#xe930;" d="M1024 448c0-282.77-229.23-512-512-512s-512 229.23-512 512c0 282.77 229.23 512 512 512s512-229.23 512-512z" />
<glyph unicode="&#xe931;" d="M512 502.306l147.781 147.781c14.996 14.996 39.31 14.996 54.306 0s14.996-39.31 0-54.306l-147.781-147.781 147.781-147.781c14.996-14.996 14.996-39.31 0-54.306s-39.31-14.996-54.306 0l-147.781 147.781-147.781-147.781c-14.996-14.996-39.31-14.996-54.306 0s-14.996 39.31 0 54.306l147.781 147.781-147.781 147.781c-14.996 14.996-14.996 39.31 0 54.306s39.31 14.996 54.306 0l147.781-147.781z" />
<glyph unicode="&#xe932;" glyph-name="do_not_disturb_24" d="M512 874.667c-235.52 0-426.667-191.147-426.667-426.667s191.147-426.667 426.667-426.667c235.52 0 426.667 191.147 426.667 426.667s-191.147 426.667-426.667 426.667zM512 106.667c-188.587 0-341.333 152.747-341.333 341.333 0 78.933 26.88 151.467 72.107 209.067l478.293-478.293c-57.6-45.227-130.133-72.107-209.067-72.107zM781.227 238.933l-478.293 478.293c57.6 45.227 130.133 72.107 209.067 72.107 188.587 0 341.333-152.747 341.333-341.333 0-78.933-26.88-151.467-72.107-209.067z" />
<glyph unicode="&#xe933;" glyph-name="document_24" d="M170.667 746.667v-554.667c0-70.692 57.308-128 128-128l469.333-0.098c70.692 0 128 57.308 128 128 0 0.033 0 0.066 0 0.098l-0.399 391.359c-0.017 22.609-9.007 44.287-24.994 60.274l-206.040 206.040c-16.003 16.003-37.708 24.994-60.34 24.994h-305.56c-70.692 0-128-57.308-128-128zM597.851 788.816l169.632-169.632c4.999-4.999 4.999-13.103 0-18.102-2.4-2.4-5.656-3.749-9.051-3.749l-161.098-0.001c-11.782 0-21.333 9.551-21.333 21.333 0 0 0 0 0 0v161.099c0 7.069 5.731 12.8 12.8 12.8 3.395 0 6.651-1.349 9.051-3.749z" />
<glyph unicode="&#xe936;" glyph-name="done_16" d="M384 307.2l-160 160c-24.742 24.742-64.858 24.742-89.6 0v0c-24.742-24.742-24.742-64.858 0-89.6l204.345-204.345c24.994-24.994 65.516-24.994 90.51 0l485.945 485.945c24.742 24.742 24.742 64.858 0 89.6v0c-24.742 24.742-64.858 24.742-89.6 0l-441.6-441.6z" />
<glyph unicode="&#xe939;" glyph-name="done_outline_24" d="M847.514 731.153c14.996 14.996 39.31 14.996 54.306 0s14.996-39.31 0-54.306l-490.667-490.667c-14.996-14.996-39.31-14.996-54.306 0l-213.333 213.333c-14.996 14.996-14.996 39.31 0 54.306s39.31 14.996 54.306 0l186.18-186.18 463.514 463.514z" />
<glyph unicode="&#xe93b;" glyph-name="down_16" d="M448 282.51v517.49c0 35.346 28.654 64 64 64s64-28.654 64-64v-517.49l178.745 178.745c24.994 24.994 65.516 24.994 90.51 0s24.994-65.516 0-90.51l-288-288c-24.994-24.994-65.516-24.994-90.51 0l-288 288c-24.994 24.994-24.994 65.516 0 90.51s65.516 24.994 90.51 0l178.745-178.745z" />
<glyph unicode="&#xe93c;" glyph-name="download_24" d="M384 832h256v-256h129.464c9.426 0 17.067-7.641 17.067-17.067 0-4.526-1.798-8.867-4.999-12.068l-257.464-257.464c-6.665-6.665-17.471-6.665-24.136 0l-257.464 257.464c-6.665 6.665-6.665 17.471 0 24.136 3.201 3.201 7.542 4.999 12.068 4.999h129.464v256zM256 192h512c23.564 0 42.667-19.103 42.667-42.667v0c0-23.564-19.103-42.667-42.667-42.667h-512c-23.564 0-42.667 19.103-42.667 42.667v0c0 23.564 19.103 42.667 42.667 42.667z" />
<glyph unicode="&#xe93d;" glyph-name="dropdown_16" d="M285.083 595.773c-25.060 19.595-61.26 15.165-80.855-9.895s-15.165-61.26 9.895-80.855l262.185-205.009c20.839-16.294 50.097-16.3 70.942-0.014l262.398 205.009c25.068 19.585 29.512 55.784 9.927 80.852s-55.784 29.512-80.852 9.927l-226.921-177.292-226.719 177.278z" />
<glyph unicode="&#xe93f;" glyph-name="education_24" d="M938.481 581.974h0.186v-261.974c0-23.564-19.103-42.667-42.667-42.667s-42.667 19.103-42.667 42.667v188.611l-320.187-182.751c-13.106-7.48-29.188-7.481-42.295-0.003l-383.929 219.065c-20.467 11.678-27.591 37.737-15.913 58.204 3.785 6.633 9.28 12.129 15.913 15.913l383.929 219.065c13.107 7.479 29.189 7.478 42.295-0.003l383.81-219.065c13.782-7.866 21.513-22.254 21.524-37.063zM789.333 373.828v-96.494c0-117.821-124.166-213.333-277.333-213.333s-277.333 95.513-277.333 213.333v96.453l213.895-122.046c39.321-22.436 87.568-22.433 126.885 0.008l213.887 122.079z" />
<glyph unicode="&#xe940;" glyph-name="education_outline_20" d="M896 495.988l-76.8-42.113v-159.475c0-143.384-139.114-256-307.2-256s-307.2 112.616-307.2 256v159.475l-120.376 66.008c-30.992 16.995-42.34 55.896-25.345 86.889 5.862 10.69 14.655 19.483 25.345 25.345l396.804 217.588c19.168 10.511 42.375 10.511 61.543 0l396.804-217.588c21.679-11.888 33.746-34.494 33.224-57.615v-267.302c0-21.208-17.192-38.4-38.4-38.4s-38.4 17.192-38.4 38.4v188.788zM742.4 411.762l-199.628-109.466c-19.168-10.511-42.375-10.511-61.543 0l-199.628 109.466v-117.362c0-96.97 101.578-179.2 230.4-179.2s230.4 82.23 230.4 179.2v117.362zM512 778.99l-370.182-202.99 370.182-202.99 370.182 202.99-370.182 202.99z" />
<glyph unicode="&#xe941;" glyph-name="error_24" d="M512 21.333c-47.128 0-85.333 38.205-85.333 85.333s38.205 85.333 85.333 85.333c47.128 0 85.333-38.205 85.333-85.333s-38.205-85.333-85.333-85.333zM469.137 874.667h85.728c23.564 0 42.667-19.103 42.667-42.667 0-0.518-0.009-1.037-0.028-1.555l-17.786-487.82c-0.476-13.043-3.808-24.645-9.489-34.318s-13.713-17.417-23.586-22.742c-9.874-5.325-21.589-8.233-34.641-8.233s-24.767 2.907-34.641 8.233c-9.874 5.325-17.905 13.069-23.586 22.742s-9.014 21.275-9.489 34.318l-17.786 487.82c-0.859 23.549 17.535 43.334 41.084 44.193 0.518 0.019 1.036 0.028 1.555 0.028z" />
<glyph unicode="&#xe942;" glyph-name="error_outline_28" d="M109.714 448c0 222.062 180.224 402.286 402.286 402.286s402.286-180.224 402.286-402.286c0-222.062-180.224-402.286-402.286-402.286s-402.286 180.224-402.286 402.286zM512 784.457c-185.724 0-336.457-150.733-336.457-336.457s150.733-336.457 336.457-336.457c185.724 0 336.457 150.733 336.457 336.457s-150.733 336.457-336.457 336.457zM475.429 429.714v182.857c0 20.198 16.374 36.571 36.571 36.571s36.571-16.374 36.571-36.571v-182.857c0-20.198-16.374-36.571-36.571-36.571s-36.571 16.374-36.571 36.571zM466.29 292.571c0 25.245 20.465 45.71 45.71 45.71h0.004c25.245 0 45.71-20.465 45.71-45.71s-20.465-45.71-45.71-45.71h-0.004c-25.245 0-45.71 20.465-45.71 45.71z" />
<glyph unicode="&#xe943;" glyph-name="event_outline_56" d="M201.143 612.571h621.714v54.857c0 40.396-32.747 73.143-73.143 73.143h-18.286v-9.143c0-15.148-12.28-27.429-27.429-27.429s-27.429 12.28-27.429 27.429v9.143h-329.143v-9.143c0-15.148-12.28-27.429-27.429-27.429s-27.429 12.28-27.429 27.429v9.143h-18.286c-40.396 0-73.143-32.747-73.143-73.143v-54.857zM201.143 557.714v-365.714c0-40.396 32.747-73.143 73.143-73.143h475.429c40.396 0 73.143 32.747 73.143 73.143v365.714h-621.714zM292.571 795.429v18.286c0 15.148 12.28 27.429 27.429 27.429s27.429-12.28 27.429-27.429v-18.286h329.143v18.286c0 15.148 12.28 27.429 27.429 27.429s27.429-12.28 27.429-27.429v-18.286h18.286c70.692 0 128-57.308 128-128v-475.429c0-70.692-57.308-128-128-128h-475.429c-70.692 0-128 57.308-128 128v475.429c0 70.692 57.308 128 128 128h18.286zM310.857 466.286h36.571c10.099 0 18.286-8.187 18.286-18.286v-36.571c0-10.099-8.187-18.286-18.286-18.286h-36.571c-10.099 0-18.286 8.187-18.286 18.286v36.571c0 10.099 8.187 18.286 18.286 18.286zM310.857 283.429h36.571c10.099 0 18.286-8.187 18.286-18.286v-36.571c0-10.099-8.187-18.286-18.286-18.286h-36.571c-10.099 0-18.286 8.187-18.286 18.286v36.571c0 10.099 8.187 18.286 18.286 18.286zM493.714 466.286h36.571c10.099 0 18.286-8.187 18.286-18.286v-36.571c0-10.099-8.187-18.286-18.286-18.286h-36.571c-10.099 0-18.286 8.187-18.286 18.286v36.571c0 10.099 8.187 18.286 18.286 18.286zM493.714 283.429h36.571c10.099 0 18.286-8.187 18.286-18.286v-36.571c0-10.099-8.187-18.286-18.286-18.286h-36.571c-10.099 0-18.286 8.187-18.286 18.286v36.571c0 10.099 8.187 18.286 18.286 18.286zM676.571 466.286h36.571c10.099 0 18.286-8.187 18.286-18.286v-36.571c0-10.099-8.187-18.286-18.286-18.286h-36.571c-10.099 0-18.286 8.187-18.286 18.286v36.571c0 10.099 8.187 18.286 18.286 18.286zM676.571 283.429h36.571c10.099 0 18.286-8.187 18.286-18.286v-36.571c0-10.099-8.187-18.286-18.286-18.286h-36.571c-10.099 0-18.286 8.187-18.286 18.286v36.571c0 10.099 8.187 18.286 18.286 18.286z" />
<glyph unicode="&#xe944;" glyph-name="favorite_24" d="M654.655 597.975l188.995-18.132c65.761-6.309 85.93-70.547 35.149-112.751l-147.962-122.972 54.929-200.332c18.039-65.789-37.926-105.616-93.98-66.022l-179.784 126.991-179.784-126.991c-55.828-39.434-112.022 0.224-93.98 66.022l54.929 200.332-147.962 122.972c-50.994 42.381-30.905 106.413 35.139 112.751l188.96 18.132 83.251 191.942c26.071 60.109 92.839 60.079 118.889-0.006l83.212-191.936z" />
<glyph unicode="&#xe946;" glyph-name="favorite_outline_24" d="M491.713 772.853l-93.266-215.032-214.014-20.536c-28.515-2.736-33.58-19.483-11.943-37.466l169.11-140.548-62.2-226.851c-7.471-27.247 5.154-36.18 28.216-19.89l204.4 144.379 204.4-144.379c23.255-16.427 35.695-7.385 28.216 19.89l-62.2 226.851 169.11 140.548c21.419 17.801 16.286 34.757-11.953 37.466l-214.053 20.536-93.225 215.032c-11.197 25.827-29.386 25.854-40.599 0zM677.977 629.943l168.949-16.209c95.858-9.197 127.916-111.303 53.707-172.979l-131.044-108.911 49.111-179.116c26.469-96.538-64.245-161.093-146.592-102.927l-160.091 113.081-160.091-113.081c-82.047-57.954-173.087 6.296-146.592 102.927l49.111 179.116-131.044 108.911c-74.419 61.85-42.449 163.753 53.696 172.979l168.918 16.209 75.239 173.47c37.96 87.52 143.592 87.472 181.52-0.011l75.202-173.459z" />
<glyph unicode="&#xe948;" glyph-name="filter_24" d="M263.283 661.333c17.572 49.715 64.985 85.333 120.717 85.333s103.145-35.618 120.717-85.333h348.617c23.564 0 42.667-19.103 42.667-42.667s-19.103-42.667-42.667-42.667h-348.617c-17.572-49.715-64.985-85.333-120.717-85.333s-103.145 35.618-120.717 85.333h-92.617c-23.564 0-42.667 19.103-42.667 42.667s19.103 42.667 42.667 42.667h92.617zM519.283 320c17.572 49.715 64.985 85.333 120.717 85.333s103.145-35.618 120.717-85.333h92.617c23.564 0 42.667-19.103 42.667-42.667s-19.103-42.667-42.667-42.667h-92.617c-17.572-49.715-64.985-85.333-120.717-85.333s-103.145 35.618-120.717 85.333h-348.617c-23.564 0-42.667 19.103-42.667 42.667s19.103 42.667 42.667 42.667h348.617zM640 224c29.455 0 53.333 23.878 53.333 53.333s-23.878 53.333-53.333 53.333c-29.455 0-53.333-23.878-53.333-53.333s23.878-53.333 53.333-53.333zM384 565.333c29.455 0 53.333 23.878 53.333 53.333s-23.878 53.333-53.333 53.333c-29.455 0-53.333-23.878-53.333-53.333s23.878-53.333 53.333-53.333z" />
<glyph unicode="&#xe949;" glyph-name="fire_12" d="M519.869 892.851c3.74 2.773 8.502 3.78 13.045 2.758 8.623-1.94 14.041-10.503 12.101-19.126l-0.003 0.001c-2.266-10.072-5.103-17.74-8.511-23.002-120.813-186.551-67.753-298.685 13.713-310.735 84.26-12.463 145.898 43.991 132.71 165.845-2.272 20.989-4.171 38.677-5.697 53.063-0.359 3.387 0.469 6.794 2.343 9.638 4.467 6.779 13.583 8.654 20.362 4.187l0.011 0.017c27.388-18.045 60.165-50.868 98.331-98.47 135.792-169.363 141.103-311.123 140.339-372.095-2.74-218.601-164.56-368.934-383.972-368.934s-383.972 150.306-383.972 368.934c0.972 165.519 84.58 398.507 315.397 563.212 8.621 6.152 19.889 14.387 33.805 24.706z" />
<glyph unicode="&#xe94b;" glyph-name="fire_verified_12" d="M519.896 892.851c3.74 2.773 8.503 3.78 13.045 2.758 8.623-1.94 14.041-10.504 12.101-19.127l-0.004 0.001c-2.266-10.072-5.103-17.74-8.512-23.002-120.822-186.551-67.758-298.686 13.714-310.736 84.266-12.463 145.909 43.991 132.719 165.845-2.272 20.989-4.171 38.677-5.698 53.063-0.359 3.388 0.469 6.795 2.343 9.639 4.467 6.78 13.585 8.656 20.365 4.189l0.010 0.015c27.39-18.045 60.169-50.868 98.338-98.47 135.802-169.364 141.113-311.125 140.349-372.097-2.74-218.601-164.571-368.935-384-368.935s-384 150.307-384 368.935c0.972 165.52 84.586 398.509 315.42 563.214 8.622 6.152 19.892 14.388 33.809 24.707zM394.345 351.673c-17.495 17.495-45.861 17.495-63.357 0s-17.495-45.861 0-63.357l128-128c17.495-17.495 45.861-17.495 63.357 0l256 256c17.495 17.495 17.495 45.861 0 63.357s-45.861 17.495-63.357 0l-224.322-224.322-96.322 96.322z" />
<glyph unicode="&#xe94d;" glyph-name="flash_24" d="M417.022 144.394c-21.874-88.097 10.968-106.347 69.719-42.031l246.787 283.569c57.099 69.693 42.797 125.688-39.43 139.687l-118.987 22.036c-6.951 1.287-11.542 7.966-10.255 14.917 0.042 0.229 0.091 0.457 0.146 0.684l45.789 188.925c21.935 88.656-14.625 104.712-69.465 41.885-78.797-88.846-138.678-155.962-179.642-201.349-14.282-15.824-37.271-40.523-68.967-74.096-69.465-77.084-32.905-132.987 47.443-146.986l113.715-20.385c6.958-1.247 11.588-7.899 10.341-14.858-0.048-0.268-0.105-0.534-0.17-0.798l-47.023-191.199z" />
<glyph unicode="&#xe94e;" glyph-name="followers_24" d="M206.427 745.421c11.575-0.552 21.095-1.201 28.559-1.946 300.219-29.959 539.337-267.389 571.899-566.834 0.953-8.767 1.774-20.156 2.462-34.166h0.002c0.924-18.83-13.591-34.843-32.42-35.768-0.558-0.027-1.116-0.041-1.674-0.041h-59.823c-18.125 0-33.090 14.166-34.083 32.265-0.654 11.918-1.429 21.63-2.326 29.138-28.426 237.845-219.908 425.601-459.468 448.294-4.523 0.428-10.035 0.813-16.537 1.153v-0.001c-18.134 0.949-32.351 15.929-32.351 34.088v59.724c0 18.851 15.282 34.133 34.133 34.133 0.543 0 1.085-0.013 1.627-0.039zM207.244 530.777c16.187-1.162 25.126-1.869 26.819-2.121 180.642-26.908 324.313-167.046 356.507-345.907 1.78-9.888 3.304-22.989 4.573-39.303v0c1.462-18.794-12.589-35.215-31.384-36.677-0.881-0.068-1.763-0.103-2.647-0.103l-53.517 0.002c-17.723 0-32.498 13.566-34.007 31.225-0.586 6.851-1.25 12.602-1.993 17.253-20.688 129.423-122.86 231.649-252.256 252.417-0.302 0.048-6.044 0.514-17.227 1.398v0c-17.753 1.403-31.444 16.219-31.444 34.027l0.002 53.744c0 18.85 15.281 34.132 34.132 34.132 0.815 0 1.631-0.029 2.444-0.088zM346.409 106.667h-141.609c-18.851 0-34.133 15.282-34.133 34.133l0.002 141.816c0 18.85 15.281 34.131 34.131 34.131 2.011 0 4.018-0.178 5.998-0.531 0.791-0.141 1.55-0.285 2.277-0.432 81.014-16.34 145.401-78.579 164.863-158.416 0.784-3.218 1.514-6.971 2.189-11.259h0.002c2.931-18.623-9.79-36.097-28.413-39.028-1.756-0.276-3.53-0.415-5.307-0.415z" />
<glyph unicode="&#xe94f;" glyph-name="followers_outline_20" d="M281.6 140.8c-42.415 0-76.8 34.385-76.8 76.8s34.385 76.8 76.8 76.8c42.415 0 76.8-34.385 76.8-76.8s-34.385-76.8-76.8-76.8zM640 179.2c0-21.208-17.192-38.4-38.4-38.4s-38.4 17.192-38.4 38.4c0 181.033-138.967 320-320 320-21.208 0-38.4 17.192-38.4 38.4s17.192 38.4 38.4 38.4c223.448 0 396.8-173.352 396.8-396.8zM896 179.2c0-21.208-17.192-38.4-38.4-38.4s-38.4 17.192-38.4 38.4c0 324.392-251.608 576-576 576-21.208 0-38.4 17.192-38.4 38.4s17.192 38.4 38.4 38.4c366.808 0 652.8-285.992 652.8-652.8z" />
<glyph unicode="&#xe950;" glyph-name="forward_10_24" d="M517.16 778.667v80.812c0 2.761 0.765 5.468 2.211 7.82 4.319 7.026 13.516 9.221 20.542 4.902l183.536-112.812c1.996-1.227 3.675-2.906 4.902-4.902 4.319-7.026 2.124-16.223-4.902-20.542l-183.536-112.812c-2.352-1.446-5.059-2.211-7.82-2.211-8.247 0-14.933 6.686-14.933 14.933v80.812c-147.276 0-266.667-119.391-266.667-266.667s119.391-266.667 266.667-266.667c128.774 0 238.514 91.958 262.054 216.988 3.27 17.368 20 28.797 37.368 25.527s28.797-20 25.527-37.368c-29.209-155.145-165.256-269.147-324.949-269.147-182.622 0-330.667 148.045-330.667 330.667s148.045 330.667 330.667 330.667zM401.062 334.933v155.733l-36.95-14.78c-6.126-2.45-13.079 0.529-15.529 6.655-0.564 1.411-0.854 2.917-0.854 4.437v21.593c0 5.964 3.549 11.356 9.026 13.715l78.722 33.904c7.575 3.262 16.36-0.234 19.622-7.808 0.804-1.866 1.218-3.876 1.218-5.907v-207.543c0-8.247-6.686-14.933-14.933-14.933h-25.388c-8.247 0-14.933 6.686-14.933 14.933zM592.521 320.060c-51.546 0-93.424 29.629-93.333 119.467s41.787 119.467 93.333 119.467c51.546 0 93.457-29.629 93.333-119.467s-41.787-119.467-93.333-119.467zM592.627 367.781c26.011 0 40.107 17.262 40.107 69.508s-14.327 69.508-40.107 69.508c-25.779 0-40.107-17.284-40.107-69.508s14.096-69.508 40.107-69.508z" />
<glyph unicode="&#xe951;" glyph-name="forward_24" d="M554.713 320h-384.046c-23.564 0-42.667 19.103-42.667 42.667v170.667c0 23.564 19.103 42.667 42.667 42.667h384.046v170.895c0 9.426 7.641 17.067 17.067 17.067 4.358 0 8.55-1.667 11.718-4.659l316.477-298.895c6.853-6.472 7.161-17.273 0.689-24.126-0.223-0.236-0.453-0.466-0.689-0.689l-316.477-298.895c-6.853-6.472-17.654-6.163-24.126 0.689-2.992 3.168-4.659 7.361-4.659 11.718v170.895z" />
<glyph unicode="&#xe952;" glyph-name="fullscreen_24" d="M448 149.333c0-23.564-19.103-42.667-42.667-42.667h-192c-23.564 0-42.667 19.103-42.667 42.667v192c0 23.564 19.103 42.667 42.667 42.667s42.667-19.103 42.667-42.667v-88.384l143.489 143.553c16.662 16.662 43.677 16.662 60.34 0l0.679-0.679c16.659-16.665 16.654-43.68-0.011-60.34l-143.547-143.484h88.384c23.564 0 42.667-19.103 42.667-42.667zM768 643.051l-143.484-143.547c-0.002-0.002-0.004-0.004-0.006-0.006-16.662-16.662-43.677-16.662-60.34 0l-0.673 0.673c-0.002 0.002-0.004 0.004-0.006 0.006-16.659 16.665-16.654 43.68 0.011 60.34l143.547 143.484h-88.384c-23.564 0-42.667 19.103-42.667 42.667s19.103 42.667 42.667 42.667h192c23.564 0 42.667-19.103 42.667-42.667v-192c0-23.564-19.103-42.667-42.667-42.667s-42.667 19.103-42.667 42.667v88.384z" />
<glyph unicode="&#xe953;" glyph-name="fullscreen_exit_24" d="M195.4 363.573c0 23.314 18.9 42.213 42.213 42.213h189.96c23.314 0 42.213-18.9 42.213-42.213v-189.96c0-23.314-18.9-42.213-42.213-42.213s-42.213 18.9-42.213 42.213v87.445l-141.644-141.707c-16.662-16.662-43.677-16.662-60.34 0l-0.030 0.030c-16.659 16.665-16.654 43.68 0.011 60.34l141.702 141.639h-87.445c-23.314 0-42.213 18.9-42.213 42.213zM638.64 634.942l141.639 141.702c0.002 0.002 0.004 0.004 0.006 0.006 16.662 16.662 43.677 16.662 60.34 0l0.025-0.025c0.002-0.002 0.004-0.004 0.006-0.006 16.659-16.665 16.654-43.68-0.011-60.34l-141.702-141.639h87.445c23.314 0 42.213-18.9 42.213-42.213s-18.9-42.213-42.213-42.213h-189.507c-23.564 0-42.667 19.103-42.667 42.667v189.507c0 23.314 18.9 42.213 42.213 42.213s42.213-18.9 42.213-42.213v-87.445z" />
<glyph unicode="&#xe954;" glyph-name="gallery_24" d="M256 832h512c70.692 0 128-57.308 128-128v-512c0-70.692-57.308-128-128-128h-512c-70.692 0-128 57.308-128 128v512c0 70.692 57.308 128 128 128zM469.333 255.573l-93.949 113.115c-0.739 0.89-1.572 1.697-2.485 2.407-6.975 5.425-17.028 4.169-22.453-2.807l-117.028-150.465c-2.184-2.809-3.37-6.265-3.37-9.823 0-8.837 7.163-16 16-16h532.619c3.462 0 6.83 1.123 9.6 3.2 7.069 5.302 8.502 15.331 3.2 22.4l-160.217 213.623c-0.857 1.142-1.862 2.165-2.991 3.040-6.981 5.418-17.032 4.15-22.45-2.831l-136.476-175.859z" />
<glyph unicode="&#xe956;" glyph-name="game_24" d="M341.333 533.333v53.333c0 11.782-9.551 21.333-21.333 21.333h-10.667c-11.782 0-21.333-9.551-21.333-21.333v-53.333h-53.333c-11.782 0-21.333-9.551-21.333-21.333v-10.667c0-11.782 9.551-21.333 21.333-21.333h53.333v-53.333c0-11.782 9.551-21.333 21.333-21.333h10.667c11.782 0 21.333 9.551 21.333 21.333v53.333h53.333c11.782 0 21.333 9.551 21.333 21.333v10.667c0 11.782-9.551 21.333-21.333 21.333h-53.333zM661.333 298.667c-56 0-242.849 0-298.849 0s-127.818-192-205.333-192c-74.667 0-93.333 37.333-93.333 149.333s18.667 448 224 448h448c205.333 0 224-336 224-448s-18.667-149.333-93.333-149.333c-77.151 0-149.151 192-205.151 192zM629.333 533.333c-11.782 0-21.333-9.551-21.333-21.333v-10.667c0-11.782 9.551-21.333 21.333-21.333h10.667c11.782 0 21.333 9.551 21.333 21.333v10.667c0 11.782-9.551 21.333-21.333 21.333h-10.667zM778.667 533.333c-11.782 0-21.333-9.551-21.333-21.333v-10.667c0-11.782 9.551-21.333 21.333-21.333h10.667c11.782 0 21.333 9.551 21.333 21.333v10.667c0 11.782-9.551 21.333-21.333 21.333h-10.667zM704 458.667c-11.782 0-21.333-9.551-21.333-21.333v-10.667c0-11.782 9.551-21.333 21.333-21.333h10.667c11.782 0 21.333 9.551 21.333 21.333v10.667c0 11.782-9.551 21.333-21.333 21.333h-10.667zM704 608c-11.782 0-21.333-9.551-21.333-21.333v-10.667c0-11.782 9.551-21.333 21.333-21.333h10.667c11.782 0 21.333 9.551 21.333 21.333v10.667c0 11.782-9.551 21.333-21.333 21.333h-10.667z" />
<glyph unicode="&#xe958;" glyph-name="gift_16" d="M896 554.322c0 47.364-38.396 85.76-85.76 85.76h-596.48c-47.364 0-85.76-38.396-85.76-85.76v-63.169c0-23.682 19.198-42.88 42.88-42.88v0c31.969 0 63.939 0 95.908 0h-42.667v-308.822c0-59.205 47.995-107.2 107.2-107.2h361.47c59.205 0 107.2 47.995 107.2 107.2v308.767l53.128 0.054c23.673 0.013 42.856 19.207 42.856 42.88l0.024 63.169zM527.858 640.296h16.142v-192.149l255.565 0.071-0.205-64-255.36-0.071v-351.929h-64v351.911l-256.091-0.071v64l256.091 0.071v192.166h16.142c-124.15 3.324-261.475 45.080-261.475 106.452 0 64 85.333 128 149.333 106.667 42.643-14.214 85.286-85.254 127.929-213.119h0.143c42.643 127.865 85.286 198.905 127.929 213.119 64 21.333 149.333-42.667 149.333-106.667 0-61.373-137.325-103.128-261.475-106.452z" />
<glyph unicode="&#xe95b;" glyph-name="gift_outline_20" d="M550.4 550.59v-128.19h215.545c18.326 0 26.586 1.731 34.044 5.72 5.824 3.115 10.164 7.455 13.279 13.279 3.989 7.458 5.72 15.718 5.72 34.044v11.052c0 11.604-3.033 22.652-8.719 32.366-5.56 9.5-13.51 17.45-23.010 23.010-9.715 5.686-20.762 8.719-32.366 8.719h-204.493zM473.6 550.59h-204.454c-11.604 0-22.652-3.033-32.366-8.719-9.5-5.56-17.45-13.51-23.010-23.010-5.686-9.715-8.719-20.762-8.719-32.366v-11.052c0-18.326 1.731-26.586 5.72-34.044 3.115-5.824 7.455-10.164 13.279-13.279 7.459-3.989 15.718-5.72 34.044-5.72h215.506v128.19zM473.6 345.6h-192v-91.911c0-46.223 3.262-63.115 12.558-80.497 7.577-14.167 18.466-25.056 32.633-32.633 17.382-9.296 34.274-12.558 80.497-12.558h66.311v217.6zM550.4 345.6v-217.6h66.311c46.223 0 63.115 3.262 80.497 12.558 14.167 7.577 25.056 18.466 32.633 32.633 9.296 17.382 12.558 34.274 12.558 80.497v91.911h-192zM204.8 352.966c-5.855 2.014-11.447 4.477-16.969 7.43-19.207 10.272-34.511 25.576-44.783 44.783-10.499 19.631-14.796 40.141-14.796 70.263v11.052c0 25.326 6.706 49.749 19.237 71.159 12.214 20.869 29.63 38.285 50.499 50.499 12.226 7.155 25.434 12.411 39.232 15.604-21.572 18.991-32.419 43.257-32.419 75.599 0 79.899 76.455 145.443 165.575 145.443 61.557 0 111.658-50.595 141.625-113.541 29.967 62.946 80.069 113.541 141.625 113.541 89.12 0 165.575-65.545 165.575-145.443 0-32.338-10.844-56.602-32.41-75.592 13.809-3.192 27.028-8.451 39.263-15.611 20.869-12.214 38.285-29.63 50.499-50.499 12.531-21.41 19.237-45.834 19.237-71.159v-11.052c0-30.122-4.297-50.632-14.796-70.263-10.272-19.207-25.576-34.511-44.783-44.783-5.534-2.96-11.139-5.427-17.008-7.444v-99.264c0-57.817-5.575-86.687-21.635-116.716-14.735-27.551-36.586-49.403-64.138-64.138-30.029-16.060-58.899-21.635-116.716-21.635h-209.423c-57.817 0-86.687 5.575-116.716 21.635-27.551 14.735-49.403 36.586-64.138 64.138-16.060 30.029-21.635 58.899-21.635 116.716v99.278zM563.853 648.146c-2.131-9.163 9.399-14.42 63.292-3.819 81.403 16.012 115.255 33.867 115.255 55.030 0 34.634-39.671 68.643-88.775 68.643-33.835 0-76.3-61.917-89.772-119.854zM460.147 648.146c-13.472 57.937-55.937 119.854-89.772 119.854-49.104 0-88.775-34.010-88.775-68.643 0-21.163 33.852-39.018 115.255-55.030 53.893-10.601 65.422-5.344 63.292 3.819z" />
<glyph unicode="&#xe95c;" glyph-name="globe_24" d="M610.726 554.667h-193.879c-7.504-40.808-11.514-83.679-11.514-128 0-29.129 1.732-57.631 5.050-85.333h200.343c5.196 34.332 7.94 70.004 7.94 106.667s-2.744 72.334-7.94 106.667zM675.365 554.667c4.794-34.567 7.302-70.221 7.302-106.667s-2.507-72.1-7.302-106.667h183.361c10.363 33.725 15.94 69.544 15.94 106.667s-5.577 72.942-15.94 106.667h-183.361zM511.095 85.334c38.213 53.397 68.253 118.726 86.765 191.999h-176.732c15.698-72.153 42.434-137.263 77.191-191.747 4.24-0.157 8.5-0.242 12.776-0.252zM592.815 94.371c103.672 23.594 190.453 91.606 239.266 182.963h-168.454c-15.387-67.053-39.602-128.866-70.811-182.963zM592.815 801.629c31.209-54.097 55.425-115.91 70.811-182.963h168.454c-48.813 91.356-135.593 159.369-239.266 182.963zM597.86 618.667c-17.12 67.764-44.1 128.733-78.285 179.754-37.551-49.898-67.757-110.99-87.656-179.754h165.941zM351.906 554.667h-186.632c-10.363-33.725-15.94-69.544-15.94-106.667s5.577-72.942 15.94-106.667h180.71c-3.063 27.844-4.65 56.339-4.65 85.333 0 43.993 3.653 86.834 10.573 128zM417.713 97.711c-27.814 53.877-48.982 114.473-61.901 179.623h-163.893c46.683-87.37 128.093-153.39 225.794-179.623zM446.067 804.688c-110.226-20.245-203.017-90.327-254.148-186.021h173.692c18.061 68.985 45.581 131.939 80.455 186.021zM512 21.333c-235.641 0-426.667 191.025-426.667 426.667s191.025 426.667 426.667 426.667c235.641 0 426.667-191.025 426.667-426.667s-191.025-426.667-426.667-426.667z" />
<glyph unicode="&#xe95d;" glyph-name="globe_outline_20" d="M855.558 550.4h-172.744c5.586-33.849 8.385-67.986 8.385-102.4s-2.799-68.551-8.385-102.4h172.744c9.656 32.446 14.842 66.817 14.842 102.4s-5.185 69.954-14.842 102.4zM822.452 627.2c-49.583 85.714-133.644 148.987-233.219 170.857 33.619-56.024 58.968-112.995 75.983-170.857h157.236zM168.442 550.4c-9.656-32.446-14.842-66.817-14.842-102.4s5.185-69.954 14.842-102.4h172.744c-5.586 33.849-8.385 67.986-8.385 102.4s2.799 68.551 8.385 102.4h-172.744zM201.548 627.2h157.236c17.014 57.862 42.363 114.833 75.983 170.857-99.575-21.87-183.636-85.143-233.219-170.857zM604.823 550.4h-185.645c-6.391-33.886-9.577-68.014-9.577-102.4s3.187-68.514 9.577-102.4h185.645c6.391 33.886 9.577 68.014 9.577 102.4s-3.187 68.514-9.577 102.4zM584.708 627.2c-16.942 50.41-41.158 100.3-72.708 149.727-31.55-49.427-55.766-99.318-72.708-149.727h145.416zM822.452 268.8h-157.236c-17.014-57.862-42.363-114.833-75.983-170.857 99.575 21.87 183.636 85.143 233.219 170.857zM201.548 268.8c49.583-85.714 133.644-148.987 233.219-170.857-33.619 56.024-58.968 112.995-75.983 170.857h-157.236zM584.708 268.8h-145.416c16.942-50.41 41.158-100.3 72.708-149.727 31.55 49.427 55.766 99.318 72.708 149.727zM512 883.2c240.354 0 435.2-194.846 435.2-435.2s-194.846-435.2-435.2-435.2c-240.354 0-435.2 194.846-435.2 435.2s194.846 435.2 435.2 435.2z" />
<glyph unicode="&#xe95e;" glyph-name="graffiti_32" d="M386.327 442.767l385.355 370.508c27.339 26.285 70.684 25.86 97.501-0.957l7.050-7.050c26.817-26.817 27.243-70.163 0.957-97.501l-364.757-379.373c-23.275 54.247-69.287 96.347-126.107 114.374zM324.16 401.139c84.992 0 153.6-68.608 153.6-153.6 0-113.152-91.648-204.8-204.8-204.8-77.312 0-157.696 39.936-204.8 102.4 43.008 0 102.4 35.328 102.4 102.4 0 84.992 68.608 153.6 153.6 153.6z" />
<glyph unicode="&#xe95f;" glyph-name="headphones_16" d="M512 864c-212.053 0-384-171.947-384-384v-288c0-70.692 57.308-128 128-128h64c35.346 0 64 28.654 64 64v192c0 35.346-28.654 64-64 64h-106.667v96c0 165.12 133.547 298.667 298.667 298.667s298.667-133.547 298.667-298.667v-96h-106.667c-35.346 0-64-28.654-64-64v-192c0-35.346 28.654-64 64-64h64c70.692 0 128 57.308 128 128v288c0 212.053-171.947 384-384 384z" />
<glyph unicode="&#xe961;" glyph-name="help_24" d="M85.333 448c0-235.52 191.147-426.667 426.667-426.667s426.667 191.147 426.667 426.667c0 235.52-191.147 426.667-426.667 426.667s-426.667-191.147-426.667-426.667zM458.667 181.333v21.333c0 23.564 19.103 42.667 42.667 42.667h21.333c23.564 0 42.667-19.103 42.667-42.667v-21.333c0-23.564-19.103-42.667-42.667-42.667h-21.333c-23.564 0-42.667 19.103-42.667 42.667zM604.587 440.747c-22.837-23.155-39.308-43.244-46.257-78.323-0.32-1.617-0.626-3.478-0.916-5.582h-0.001c-2.91-21.113-20.953-36.841-42.267-36.841h-3.147c-22.565 0-40.858 18.293-40.858 40.858 0 1.157 0.049 2.313 0.147 3.466 0.356 4.166 0.741 7.317 1.155 9.454 6.6 34 23.344 64.512 46.808 88.303l52.907 53.76c15.787 15.36 25.173 36.693 25.173 60.16 0 46.933-38.4 85.333-85.333 85.333-29.823 0-56.2-15.505-71.469-38.851-2.701-4.13-5.142-9.665-7.322-16.603v0c-5.586-17.781-22.067-29.879-40.705-29.879h-8.504c-20.121 0-36.432 16.311-36.432 36.432 0 2.708 0.302 5.408 0.9 8.049 2.581 11.39 5.509 20.597 8.786 27.621 27.164 58.232 86.223 98.564 154.746 98.564 94.293 0 170.667-76.373 170.667-170.667 0-37.547-15.36-71.68-39.68-96l-38.4-39.253z" />
<glyph unicode="&#xe962;" glyph-name="help_outline_28" d="M109.714 448c0 222.062 180.224 402.286 402.286 402.286s402.286-180.224 402.286-402.286c0-222.062-180.224-402.286-402.286-402.286s-402.286 180.224-402.286 402.286zM175.543 448c0-185.706 150.752-336.457 336.457-336.457s336.457 150.752 336.457 336.457c0 185.706-150.752 336.457-336.457 336.457s-336.457-150.752-336.457-336.457zM471.771 241.371v10.971c0 19.188 15.555 34.743 34.743 34.743h10.971c19.188 0 34.743-15.555 34.743-34.743v-10.971c0-19.188-15.555-34.743-34.743-34.743h-10.971c-19.188 0-34.743 15.555-34.743 34.743zM580.38 440.576c-17.438-17.862-30.015-33.36-35.321-60.421-0.478-2.44-0.829-6.066-1.052-10.878h0.001c-0.803-17.343-15.098-30.991-32.46-30.991l-0.325-0.001c-18.002 0-32.596 14.594-32.596 32.596 0 0.029 0 0.058 0 0.087 0.024 9.131 0.309 15.113 0.853 17.946 5.040 26.229 17.825 49.766 35.742 68.119l40.398 41.472c11.561 11.632 19.222 28.306 19.222 46.409 0 36.206-29.321 65.829-65.159 65.829-22.772 0-42.913-11.961-54.572-29.971-2.306-3.562-5.207-9.241-8.702-17.035v0c-6.886-15.354-24.328-22.943-40.256-17.515l-1.249 0.426c-16.256 5.54-24.943 23.209-19.403 39.465 0.203 0.594 0.423 1.182 0.661 1.763 2.32 5.662 4.549 10.667 6.686 15.014 22.378 45.522 64.512 73.681 116.834 73.681 72 0 130.317-58.917 130.317-131.657 0-28.965-11.729-55.296-30.299-74.057l-29.321-30.281z" />
<glyph unicode="&#xe963;" glyph-name="hide_24" d="M349.432 713.624c0.024 0.010 0.048 0.020 0.072 0.030l72.28-72.28c-0.027-0.013-0.054-0.025-0.081-0.038l86.711-86.731c0.045 0.001 0.089 0.003 0.134 0.004l110.104-110.104c-0.002-0.053-0.003-0.106-0.005-0.158l86.67-86.69c0.020 0.042 0.039 0.083 0.059 0.125l97.454-97.454c-0.038-0.031-0.075-0.062-0.113-0.093l59.134-59.148c16.661-16.665 16.659-43.68-0.003-60.343-16.66-16.66-43.672-16.66-60.333 0-0.001 0.001-0.002 0.002-0.003 0.003l-69.91 69.926c-62.238-36.112-136.414-61.341-219.6-61.341-256 0-426.667 238.933-426.667 298.667 0 37.993 69.043 148.481 185.173 223.875l-65.761 65.776c-16.661 16.665-16.659 43.68 0.003 60.343 16.66 16.66 43.672 16.66 60.333 0 0.001-0.001 0.002-0.002 0.003-0.003l84.346-84.366zM653.737 288.555l-75.657 75.674c-18.164-14.339-41.102-22.896-66.040-22.896-58.91 0-106.667 47.756-106.667 106.667 0 24.946 8.564 47.892 22.911 66.059l-75.698 75.715c-33.543-37.689-53.921-87.351-53.921-141.774 0-117.821 95.513-213.333 213.333-213.333 54.405 0 104.053 20.365 141.737 53.888zM443.008 740.829c22.217 3.781 45.237 5.838 68.992 5.838 256 0 426.667-238.933 426.667-298.667 0-23.541-26.508-74.916-74.301-128.529l-139.3 139.3c-5.432 109.248-93.047 196.863-202.295 202.295l-79.763 79.763z" />
<glyph unicode="&#xe964;" glyph-name="hide_outline_56" d="M433.332 524.45c-19.636-20.19-31.011-47.358-31.011-76.45 0-60.594 49.121-109.714 109.714-109.714 29.086 0 56.253 11.369 76.45 31.012l-155.153 155.153zM627.277 330.505c-30.335-29.776-71.376-47.076-115.242-47.076-90.89 0-164.571 73.681-164.571 164.571 0 43.876 17.31 84.917 47.076 115.242l-81.813 81.813c-92.33-57.835-166.441-155.59-166.441-197.055 0-26.588 40.805-92.577 98.534-145.495 75.263-68.991 167.638-110.505 267.18-110.505 69.989 0 136.414 20.451 196.57 57.212l-81.293 81.293zM748.345 209.436c-71.219-46.189-151.284-72.293-236.345-72.293-114.392 0-219.497 47.235-304.248 124.924-67.968 62.304-116.323 140.503-116.323 185.933 0 61.24 79.761 169.24 181.609 236.744l-45.575 45.575c-10.712 10.712-10.712 28.078 0 38.79s28.078 10.712 38.79 0l566.857-566.857c10.712-10.712 10.712-28.078 0-38.79s-28.078-10.712-38.79 0l-45.974 45.974zM662.913 513.809c6.062-13.882-0.277-30.051-14.16-36.113s-30.051 0.277-36.113 14.16c-11.054 25.314-31.418 45.681-56.729 56.741-13.881 6.065-20.217 22.235-14.152 36.116s22.235 20.217 36.116 14.152c37.979-16.594 68.452-47.074 85.039-85.056zM853.376 299.712c-10.074-11.313-27.412-12.317-38.725-2.243s-12.317 27.412-2.243 38.725c39.711 44.594 65.306 92.090 65.306 111.806 0 26.588-40.805 92.577-98.534 145.495-75.263 68.991-167.638 110.505-267.18 110.505-26.381 0-52.294-2.907-77.67-8.558-14.786-3.293-29.442 6.025-32.735 20.811s6.025 29.442 20.811 32.735c29.253 6.514 59.162 9.87 89.594 9.87 114.392 0 219.497-47.235 304.248-124.924 67.968-62.304 116.323-140.503 116.323-185.933 0-36.385-31.35-94.558-79.196-148.288z" />
<glyph unicode="&#xe965;" glyph-name="home_24" d="M426.667 362.667h170.667v-256h170.667c23.564 0 42.667 19.103 42.667 42.667v298.667h72.406c11.782 0 21.333 9.551 21.333 21.333 0 6.048-2.567 11.811-7.062 15.857l-371.073 333.966c-8.113 7.302-20.429 7.302-28.542 0l-371.073-333.966c-8.758-7.882-9.467-21.371-1.586-30.128 4.046-4.495 9.809-7.062 15.857-7.062h72.406v-298.667c0-23.564 19.103-42.667 42.667-42.667h170.667v256z" />
<glyph unicode="&#xe966;" glyph-name="home_outline_20" d="M908.353 396.62c26.863 0 48.64 21.777 48.64 48.64 0 13.421-5.545 26.245-15.323 35.438l-389.342 366.041c-22.662 21.306-57.987 21.309-80.653 0.008l-389.502-366.042c-19.575-18.396-20.531-49.179-2.135-68.754 9.193-9.782 22.020-15.33 35.445-15.33h63.469v-178.987c0-63.623 51.577-115.2 115.2-115.2h192.222v204.564c0 14.187 11.501 25.688 25.688 25.688s25.688-11.501 25.688-25.688v-204.564h191.612c63.623 0 115.2 51.577 115.2 115.2v178.987h63.792zM409.573 179.233h-115.422c-21.208 0-38.4 17.192-38.4 38.4v255.787h-69.184l325.427 305.827 325.294-305.827h-69.528v-255.787c0-21.208-17.192-38.4-38.4-38.4h-114.812v127.764c0 56.603-45.885 102.488-102.488 102.488s-102.488-45.885-102.488-102.488v-127.764z" />
<glyph unicode="&#xe967;" glyph-name="info_20" d="M512 908.8c254.362 0 460.8-206.438 460.8-460.8s-206.438-460.8-460.8-460.8c-254.362 0-460.8 206.438-460.8 460.8s206.438 460.8 460.8 460.8zM512 499.2c-25.449 0-46.080-20.631-46.080-46.080v-189.44c0-25.449 20.631-46.080 46.080-46.080s46.080 20.631 46.080 46.080v189.44c0 25.449-20.631 46.080-46.080 46.080zM512 678.4c-28.277 0-51.2-22.923-51.2-51.2s22.923-51.2 51.2-51.2c28.277 0 51.2 22.923 51.2 51.2s-22.923 51.2-51.2 51.2z" />
<glyph unicode="&#xe969;" glyph-name="info_outline_28" d="M109.714 448c0 222.062 180.224 402.286 402.286 402.286s402.286-180.224 402.286-402.286c0-222.062-180.224-402.286-402.286-402.286s-402.286 180.224-402.286 402.286zM512 784.457c-185.724 0-336.457-150.733-336.457-336.457s150.733-336.457 336.457-336.457c185.724 0 336.457 150.733 336.457 336.457s-150.733 336.457-336.457 336.457zM475.429 283.429v182.857c0 20.198 16.374 36.571 36.571 36.571s36.571-16.374 36.571-36.571v-182.857c0-20.198-16.374-36.571-36.571-36.571s-36.571 16.374-36.571 36.571zM466.29 603.429c0 25.245 20.465 45.71 45.71 45.71h0.004c25.245 0 45.71-20.465 45.71-45.71s-20.465-45.71-45.71-45.71h-0.004c-25.245 0-45.71 20.465-45.71 45.71z" />
<glyph unicode="&#xe96a;" glyph-name="keyboard_bots_outline_28" d="M398.323 842.971h227.353c97.812 0 133.281-10.184 169.040-29.308s63.822-47.188 82.946-82.946c19.124-35.759 29.308-71.228 29.308-169.040v-227.353c0-97.812-10.184-133.281-29.308-169.040s-47.188-63.822-82.946-82.946c-35.759-19.124-71.228-29.308-169.040-29.308h-227.353c-97.812 0-133.281 10.184-169.040 29.308s-63.822 47.188-82.946 82.946c-19.124 35.759-29.308 71.228-29.308 169.040v227.353c0 97.812 10.184 133.281 29.308 169.040s47.188 63.822 82.946 82.946c35.759 19.124 71.228 29.308 169.040 29.308zM379.764 777.143c-68.469 0-93.297-7.129-118.328-20.516s-44.676-33.031-58.062-58.062c-13.387-25.031-20.516-49.859-20.516-118.328v-264.473c0-68.469 7.129-93.297 20.516-118.328s33.031-44.676 58.062-58.062c25.031-13.387 49.859-20.516 118.328-20.516h264.473c68.469 0 93.297 7.129 118.328 20.516s44.676 33.031 58.062 58.062c13.387 25.031 20.516 49.859 20.516 118.328v264.473c0 68.469-7.129 93.297-20.516 118.328s-33.031 44.676-58.062 58.062c-25.031 13.387-49.859 20.516-118.328 20.516h-264.473zM402.286 630.857c40.396 0 73.143-32.747 73.143-73.143s-32.747-73.143-73.143-73.143c-40.396 0-73.143 32.747-73.143 73.143s32.747 73.143 73.143 73.143zM621.714 630.857c40.396 0 73.143-32.747 73.143-73.143s-32.747-73.143-73.143-73.143c-40.396 0-73.143 32.747-73.143 73.143s32.747 73.143 73.143 73.143zM402.286 411.429c40.396 0 73.143-32.747 73.143-73.143s-32.747-73.143-73.143-73.143c-40.396 0-73.143 32.747-73.143 73.143s32.747 73.143 73.143 73.143zM621.714 411.429c40.396 0 73.143-32.747 73.143-73.143s-32.747-73.143-73.143-73.143c-40.396 0-73.143 32.747-73.143 73.143s32.747 73.143 73.143 73.143z" />
<glyph unicode="&#xe96b;" glyph-name="like_16" d="M709.053 800c138.594 0 250.947-112.353 250.947-250.947 0-139.964-56.077-210.139-293.933-395.138l-108.226-84.176c-26.963-20.971-64.719-20.971-91.682 0l-108.226 84.176c-237.856 184.999-293.933 255.175-293.933 395.138 0 138.594 112.353 250.947 250.947 250.947 74.255 0 140.234-34.956 197.053-102.588 56.818 67.632 122.798 102.588 197.053 102.588z" />
<glyph unicode="&#xe96e;" glyph-name="like_outline_16" d="M701.474 800c142.78 0 258.526-115.746 258.526-258.526 0-141.753-56.57-212.545-289.28-393.542l-70.312-54.687c-52-40.444-124.815-40.444-176.815 0l-70.312 54.687c-232.71 180.997-289.28 251.789-289.28 393.542 0 142.78 115.746 258.526 258.526 258.526 71.14 0 134.651-30.86 189.474-89.856 54.823 58.997 118.333 89.856 189.474 89.856zM322.526 704c-89.761 0-162.526-72.766-162.526-162.526 0-101.792 41.809-154.112 252.218-317.764l70.312-54.687c17.333-13.481 41.605-13.481 58.938 0l70.312 54.687c210.41 163.652 252.218 215.972 252.218 317.764 0 89.761-72.766 162.526-162.526 162.526-54.301 0-103.61-30.878-149.994-97.952l-39.479-57.089-39.479 57.089c-46.384 67.074-95.693 97.952-149.994 97.952z" />
<glyph unicode="&#xe972;" glyph-name="link_24" d="M705.871 567.77l-403.090-403.090c-20.463-20.463-53.639-20.463-74.101 0s-20.463 53.639 0 74.101l403.090 403.090h-250.764c-28.938 0-52.398 23.459-52.398 52.398s23.459 52.398 52.398 52.398h377.263c28.938 0 52.398-23.459 52.398-52.398v-377.263c0-28.938-23.459-52.398-52.398-52.398s-52.398 23.459-52.398 52.398v250.764z" />
<glyph unicode="&#xe973;" glyph-name="link_circle_24" d="M618.667 494.327l-225.83-225.83c-16.662-16.662-43.677-16.662-60.34 0s-16.662 43.677 0 60.34l225.83 225.83h-152.994c-23.564 0-42.667 19.103-42.667 42.667s19.103 42.667 42.667 42.667h256c23.564 0 42.667-19.103 42.667-42.667v-256c0-23.564-19.103-42.667-42.667-42.667s-42.667 19.103-42.667 42.667v152.994zM512-21.333c-259.206 0-469.333 210.128-469.333 469.333s210.128 469.333 469.333 469.333c259.206 0 469.333-210.128 469.333-469.333s-210.128-469.333-469.333-469.333zM512 55.467c216.79 0 392.533 175.743 392.533 392.533s-175.743 392.533-392.533 392.533c-216.79 0-392.533-175.743-392.533-392.533s175.743-392.533 392.533-392.533z" />
<glyph unicode="&#xe974;" glyph-name="linked_24" d="M451.84 387.84c17.493-16.64 17.493-43.947 0-60.587-16.64-16.64-43.947-16.64-60.587 0-83.2 83.2-83.2 218.453 0 301.653l151.040 151.040c83.2 83.2 218.453 83.2 301.653 0s83.2-218.453 0-301.653l-63.573-63.573c0.427 34.987-5.12 69.973-17.067 103.253l20.053 20.48c50.347 49.92 50.347 130.987 0 180.907-49.92 50.347-130.987 50.347-180.907 0l-150.613-150.613c-50.347-49.92-50.347-130.987 0-180.907zM572.16 568.747c16.64 16.64 43.947 16.64 60.587 0 83.2-83.2 83.2-218.453 0-301.653l-151.040-151.040c-83.2-83.2-218.453-83.2-301.653 0s-83.2 218.453 0 301.653l63.573 63.573c-0.427-34.987 5.12-69.973 17.067-103.68l-20.053-20.053c-50.347-49.92-50.347-130.987 0-180.907 49.92-50.347 130.987-50.347 180.907 0l150.613 150.613c50.347 49.92 50.347 130.987 0 180.907-17.493 16.64-17.493 43.947 0 60.587z" />
<glyph unicode="&#xe975;" glyph-name="list_24" d="M170.667 512c-35.413 0-64-28.587-64-64s28.587-64 64-64c35.413 0 64 28.587 64 64s-28.587 64-64 64v0zM170.667 768c-35.413 0-64-28.587-64-64s28.587-64 64-64c35.413 0 64 28.587 64 64s-28.587 64-64 64v0zM170.667 256c-35.609 0-64-28.872-64-64s28.872-64 64-64c35.128 0 64 28.872 64 64s-28.391 64-64 64v0zM896 192v0c0 23.564-19.103 42.667-42.667 42.667h-512c-23.564 0-42.667-19.103-42.667-42.667v0c0-23.564 19.103-42.667 42.667-42.667h512c23.564 0 42.667 19.103 42.667 42.667zM896 448v0c0 23.564-19.103 42.667-42.667 42.667h-512c-23.564 0-42.667-19.103-42.667-42.667v0c0-23.564 19.103-42.667 42.667-42.667h512c23.564 0 42.667 19.103 42.667 42.667zM341.333 661.333h512c23.564 0 42.667 19.103 42.667 42.667v0c0 23.564-19.103 42.667-42.667 42.667h-512c-23.564 0-42.667-19.103-42.667-42.667v0c0-23.564 19.103-42.667 42.667-42.667z" />
<glyph unicode="&#xe976;" glyph-name="list_add_24" d="M597.333 490.667c0 23.564-19.446 42.667-42.772 42.667h-426.456c-23.622 0-42.772-18.938-42.772-42.667v0c0-23.564 19.446-42.667 42.772-42.667h426.456c23.622 0 42.772 18.938 42.772 42.667v0zM597.333 661.333c0 23.564-19.446 42.667-42.772 42.667h-426.456c-23.622 0-42.772-18.938-42.772-42.667v0c0-23.564 19.446-42.667 42.772-42.667h426.456c23.622 0 42.772 18.938 42.772 42.667v0zM768 362.667v127.6c0 23.785-18.938 43.066-42.667 43.066v0c-23.564 0-42.667-18.916-42.667-43.066v-127.6h-127.6c-23.785 0-43.066-18.938-43.066-42.667v0c0-23.564 18.916-42.667 43.066-42.667h127.6v-127.6c0-23.785 18.938-43.066 42.667-43.066v0c23.564 0 42.667 18.916 42.667 43.066v127.6h127.6c23.785 0 43.066 18.938 43.066 42.667v0c0 23.564-18.916 42.667-43.066 42.667h-127.6zM85.333 320c0-23.564 19.33-42.667 42.54-42.667h256.253c23.494 0 42.54 18.938 42.54 42.667v0c0 23.564-19.33 42.667-42.54 42.667h-256.253c-23.494 0-42.54-18.938-42.54-42.667v0z" />
<glyph unicode="&#xe977;" glyph-name="live_24" d="M512 0c-247.424 0-448 200.576-448 448s200.576 448 448 448c247.424 0 448-200.576 448-448s-200.576-448-448-448zM512 85.333c200.295 0 362.667 162.371 362.667 362.667s-162.371 362.667-362.667 362.667c-200.295 0-362.667-162.371-362.667-362.667s162.371-362.667 362.667-362.667zM512 170.667c-153.167 0-277.333 124.166-277.333 277.333s124.166 277.333 277.333 277.333c153.167 0 277.333-124.166 277.333-277.333s-124.166-277.333-277.333-277.333zM512 256c106.039 0 192 85.961 192 192s-85.961 192-192 192c-106.039 0-192-85.961-192-192s85.961-192 192-192zM512 341.333c-58.91 0-106.667 47.756-106.667 106.667s47.756 106.667 106.667 106.667c58.91 0 106.667-47.756 106.667-106.667s-47.756-106.667-106.667-106.667z" />
<glyph unicode="&#xe978;" glyph-name="locate_24" d="M684.951 259.257c-17.373-15.92-44.363-14.741-60.282 2.632s-14.741 44.363 2.632 60.282c69.493 63.679 74.207 171.636 10.528 241.129s-171.636 74.207-241.129 10.528c-69.493-63.679-74.207-171.636-10.528-241.129 3.404-3.715 6.947-7.26 10.622-10.631 17.364-15.93 18.525-42.92 2.595-60.284s-42.92-18.525-60.284-2.595c-5.49 5.037-10.777 10.326-15.847 15.86-95.518 104.24-88.448 266.176 15.792 361.694s266.176 88.448 361.694-15.792c95.518-104.24 88.448-266.176-15.792-361.694zM771.147 109.050c-18.72-14.312-45.497-10.739-59.81 7.98s-10.739 45.497 7.98 59.81c149.758 114.498 178.341 328.72 63.843 478.478s-328.72 178.341-478.478 63.843c-149.758-114.498-178.341-328.72-63.843-478.478 18.776-24.558 40.454-46.162 64.546-64.501 18.75-14.272 22.381-41.042 8.109-59.792s-41.042-22.381-59.792-8.109c-30.141 22.942-57.238 49.948-80.653 80.573-143.123 187.197-107.394 454.974 79.803 598.097s454.974 107.394 598.097-79.803c143.123-187.197 107.394-454.974-79.803-598.097zM512 362.667c-47.128 0-85.333 38.205-85.333 85.333s38.205 85.333 85.333 85.333c47.128 0 85.333-38.205 85.333-85.333s-38.205-85.333-85.333-85.333z" />
<glyph unicode="&#xe979;" glyph-name="lock_12" d="M256 533.333v128.256c0 0.025 0 0.055 0 0.085 0 141.385 114.615 256 256 256 141.355 0 255.951-114.566 256-255.91v-128.432h45.995c28.501 0 38.827-2.987 49.237-8.533 10.381-5.561 18.673-13.853 24.082-23.924l0.152-0.31c5.547-10.411 8.533-20.736 8.533-49.237v-347.989c0-28.501-2.987-38.827-8.533-49.237-5.561-10.381-13.853-18.673-23.924-24.082l-0.31-0.152c-10.411-5.547-20.736-8.533-49.237-8.533h-604.075c-28.501 0-38.827 2.987-49.237 8.533-10.381 5.561-18.673 13.853-24.082 23.924l-0.152 0.31c-5.547 10.411-8.533 20.736-8.533 49.237v348.075c0 28.501 2.987 38.827 8.533 49.237 5.561 10.381 13.853 18.673 23.924 24.082l0.31 0.152c10.411 5.547 20.736 8.533 49.237 8.533h46.080zM512 789.333c-70.692 0-128-57.308-128-128v0-128h256v128c0 70.692-57.308 128-128 128v0z" />
<glyph unicode="&#xe97b;" glyph-name="lock_outline_56" d="M694.857 575.489c25.915-1.433 43.448-6.037 61.595-15.742 21.479-11.487 38.665-28.673 50.152-50.152 12.076-22.58 16.253-44.21 16.253-82.217v-214.756c0-38.007-4.177-59.637-16.253-82.217-11.487-21.479-28.673-38.665-50.152-50.152-22.58-12.076-44.21-16.253-82.217-16.253h-324.47c-38.007 0-59.637 4.177-82.217 16.253-21.479 11.487-38.665 28.673-50.152 50.152-12.076 22.58-16.253 44.21-16.253 82.217v214.756c0 38.007 4.177 59.637 16.253 82.217 11.487 21.479 28.673 38.665 50.152 50.152 18.147 9.705 35.681 14.308 61.595 15.742v110.225c0 100.989 81.868 182.857 182.857 182.857s182.857-81.868 182.857-182.857v-110.225zM530.286 304.836v-57.979c0-10.099-8.187-18.286-18.286-18.286s-18.286 8.187-18.286 18.286v57.979c-21.306 7.531-36.571 27.851-36.571 51.736 0 30.297 24.56 54.857 54.857 54.857s54.857-24.56 54.857-54.857c0-23.885-15.265-44.205-36.571-51.736zM349.765 521.143c-32.604 0-44.427-3.395-56.347-9.769s-21.274-15.729-27.649-27.649c-6.375-11.92-9.769-23.743-9.769-56.347v-214.756c0-32.604 3.395-44.427 9.769-56.347s15.729-21.274 27.649-27.649c11.92-6.375 23.743-9.769 56.347-9.769h324.47c32.604 0 44.427 3.395 56.347 9.769s21.274 15.729 27.649 27.649c6.375 11.92 9.769 23.743 9.769 56.347v214.756c0 32.604-3.395 44.427-9.769 56.347s-15.729 21.274-27.649 27.649c-11.92 6.375-23.743 9.769-56.347 9.769h-324.47zM512 813.714c-70.692 0-128-57.308-128-128v-109.714h256v109.714c0 70.692-57.308 128-128 128z" />
<glyph unicode="&#xe97c;" glyph-name="logo_facebook_24" d="M128 746.667v-597.333c0-47.128 38.205-85.333 85.333-85.333h255.872v256.32h-85.419v128.064h85.44v86.699c0 93.696 62.679 168.561 172.325 168.561 40.021 0 95.025-5.489 105.051-6.833l-4.211-119.275-69.547 1.665c-42.228-1.665-76.066-34.088-76.066-65.789v-65.027h128.256l-14.123-128.064h-114.133v-256.32h213.888c47.128 0 85.333 38.205 85.333 85.333v597.333c0 47.128-38.205 85.333-85.333 85.333h-597.333c-47.128 0-85.333-38.205-85.333-85.333z" />
<glyph unicode="&#xe97d;" glyph-name="logo_google_24" d="M519.632 874.309c107.2 4.894 207.97-40.935 290.074-105.306-35.044-39.119-71.329-76.801-110.097-112.044-98.701 67.014-239.068 86.167-337.769 8.756-141.194-95.94-147.623-322.466-11.809-425.739 132.075-117.75 373.875-61.119 416.446 101.357-72.081 1.22-172.704-2.643-255.428 0-0.207 48.485-0.207 111.529 0 160 138.297 0.407 287.211 1.031 425.715 0 8.292-114.076-9.083-228.162-80.411-322.476-108.028-149.319-324.896-192.911-494.098-128.946-169.808 63.558-290.074 239.77-275.767 419.437 3.739 219.803 209.419 412.293 433.145 404.96z" />
<glyph unicode="&#xe97e;" glyph-name="logo_instagram_24" d="M512 831.88c104.256 0 117.329-0.442 158.272-2.31 40.861-1.865 68.765-8.354 93.184-17.844 25.243-9.81 46.651-22.936 67.992-44.277s34.467-42.749 44.277-67.992c9.49-24.419 15.979-52.323 17.844-93.184 1.868-40.943 2.31-54.016 2.31-158.272s-0.442-117.329-2.31-158.272c-1.865-40.861-8.354-68.765-17.844-93.184-9.81-25.243-22.936-46.651-44.277-67.992s-42.749-34.467-67.992-44.277c-24.419-9.49-52.323-15.979-93.184-17.844-40.943-1.868-54.016-2.309-158.272-2.309s-117.327 0.44-158.272 2.309c-40.861 1.865-68.765 8.354-93.184 17.844-25.243 9.81-46.651 22.936-67.992 44.277s-34.467 42.75-44.277 67.992c-9.49 24.419-15.979 52.323-17.844 93.184-1.868 40.943-2.309 54.016-2.309 158.272s0.44 117.329 2.309 158.272c1.865 40.861 8.354 68.765 17.844 93.184 9.81 25.243 22.936 46.651 44.277 67.992s42.749 34.467 67.992 44.277c24.419 9.49 52.323 15.979 93.184 17.844 40.945 1.868 54.016 2.31 158.272 2.31zM511.831 755.369c-100.054 0-111.905-0.381-151.419-2.184-36.533-1.667-56.374-7.772-69.578-12.902-17.491-6.798-29.975-14.919-43.087-28.031s-21.233-25.596-28.029-43.085c-5.132-13.206-11.236-33.047-12.904-69.581-1.803-39.512-2.184-51.363-2.184-151.417s0.381-111.905 2.184-151.419c1.667-36.533 7.772-56.374 12.904-69.58 6.796-17.489 14.918-29.973 28.029-43.085s25.596-21.233 43.087-28.029c13.204-5.132 33.045-11.236 69.58-12.904 39.506-1.803 51.357-2.184 151.417-2.184s111.911 0.381 151.417 2.184c36.535 1.667 56.376 7.772 69.581 12.904 17.489 6.796 29.973 14.918 43.085 28.029s21.233 25.596 28.029 43.085c5.132 13.206 11.236 33.047 12.904 69.581 1.803 39.512 2.184 51.363 2.184 151.417s-0.381 111.905-2.184 151.419c-1.667 36.533-7.772 56.374-12.904 69.58-6.796 17.489-14.918 29.973-28.029 43.085s-25.596 21.233-43.085 28.031c-13.206 5.13-33.047 11.235-69.581 12.902-39.512 1.803-51.363 2.184-151.417 2.184zM512 652.8c113.107 0 204.8-91.693 204.8-204.8s-91.693-204.8-204.8-204.8c-113.107 0-204.8 91.693-204.8 204.8s91.693 204.8 204.8 204.8zM512 320.040c70.67 0 127.96 57.291 127.96 127.96s-57.291 127.96-127.96 127.96c-70.67 0-127.96-57.291-127.96-127.96s57.291-127.96 127.96-127.96zM762.981 652.916c0-25.442-20.623-46.066-46.065-46.066s-46.066 20.625-46.066 46.066c0 25.442 20.625 46.065 46.066 46.065s46.065-20.623 46.065-46.065z" />
<glyph unicode="&#xe97f;" glyph-name="logo_livejournal_24" d="M290.187 770.217c36.053 26.816 104.341 47.787 135.104 26.709-35.072-4.032-76.523-21.099-115.136-49.856-40.96-30.507-70.101-67.648-82.965-101.653-17.621 36.864 24.555 96.149 62.997 124.8v0zM388.256 613.417l192.171-256.363c0 0 29.333-74.88-27.2-147.712l-232.875 310.613c10.027 30.571 33.749 64.171 67.904 93.461v0zM744.48 373.545c-35.648-30.848-129.365-26.219-148.651-5.077l-192.683 256.981 1.813 1.493c37.845 28.117 78.315 45.077 112.789 49.536l226.731-302.933zM253.067 609.641c11.776 35.264 41.664 74.624 84.544 106.603 38.037 28.267 78.656 45.141 113.301 49.6l43.349-57.984c-35.392-3.712-77.483-20.864-116.693-50.048-41.429-30.869-70.848-68.608-83.435-102.933l-41.067 54.763zM790.069 151.465c-8.917-1.792-17.963-5.781-26.219-11.861-8.235-6.123-14.507-13.675-18.752-21.611l-173.867 78.485c13.035 20.16 50.091 80.128 38.315 140.715 57.749-22.784 122.411 0.789 147.52 19.499l3.221-4.331 29.781-200.896zM853.429 21.331l-45.056 352.32-341.909 455.189c-34.347 45.824-125.461 35.84-203.52-22.315-78.080-58.112-113.515-142.315-79.168-188.16l342.357-456.661 231.125-99.051c2.325-1.301 4.736-2.389 7.296-3.157l88.875-38.165z" />
<glyph unicode="&#xe980;" glyph-name="logo_skype_24" d="M513.847 202.615c-143.168 0-207.189 70.549-207.189 123.435 0 27.115 19.968 46.123 47.488 46.123 61.269 0 45.397-88.192 159.701-88.192 58.496 0 90.816 31.851 90.816 64.448 0 19.605-9.643 41.323-48.171 50.859l-127.339 31.851c-102.528 25.771-121.152 81.344-121.152 133.589 0 108.459 101.888 149.163 197.547 149.163 88.107 0 192-48.811 192-113.877 0-27.883-24.085-44.096-51.605-44.096-52.288 0-42.645 72.555-147.968 72.555-52.245 0-81.216-23.723-81.216-57.685 0-33.877 41.301-44.693 77.12-52.885l94.251-20.971c103.232-23.040 129.408-83.456 129.408-140.373 0-88.128-67.477-153.941-203.691-153.941zM908.471 376.781c-0.277-1.515-0.469-3.029-0.747-4.544l-1.451 8.619c0.789-1.344 1.451-2.731 2.197-4.075 4.395 24.021 6.699 48.619 6.699 73.195 0 54.528-10.645 107.435-31.68 157.227-20.288 48.107-49.323 91.307-86.357 128.384-36.992 37.099-80.107 66.219-128.064 86.571-49.664 21.056-102.443 31.723-156.821 31.723-25.643 0-51.328-2.411-76.309-7.211-0.064 0-0.128-0.021-0.192-0.043 1.408-0.725 2.816-1.387 4.203-2.176l-8.469 1.323c1.408 0.277 2.837 0.576 4.267 0.853-34.283 18.283-72.832 28.032-111.872 28.032-63.723 0-123.627-24.853-168.683-70.037-45.035-45.163-69.867-105.216-69.867-169.088 0-40.661 10.432-80.619 30.016-115.925 0.256 1.472 0.427 2.944 0.725 4.395l1.451-8.469c-0.768 1.344-1.429 2.731-2.176 4.075-3.968-22.891-6.059-46.272-6.059-69.632 0-54.528 10.645-107.413 31.68-157.227 20.267-48.107 49.323-91.285 86.315-128.384 37.035-37.077 80.107-66.24 128.107-86.528 49.664-21.12 102.464-31.787 156.864-31.787 23.659 0 47.403 2.155 70.549 6.272-1.344 0.768-2.731 1.451-4.096 2.261l8.597-1.515c-1.493-0.299-2.987-0.469-4.501-0.747 35.691-20.224 76.096-30.997 117.355-30.997 63.723 0 123.605 24.853 168.64 70.037 45.077 45.141 69.867 105.195 69.867 169.067 0 40.789-10.475 80.896-30.187 116.352z" />
<glyph unicode="&#xe981;" glyph-name="logo_twitter_24" d="M353.702 106.667c-98.868 0-190.886 28.526-268.373 77.434 13.701-1.609 27.639-2.414 41.766-2.414 82.015 0 157.511 27.55 217.434 73.777-76.61 1.39-141.274 51.224-163.556 119.686 10.69-2.024 21.665-3.096 32.948-3.096 15.953 0 31.431 2.097 46.127 6.046-80.095 15.823-140.444 85.48-140.444 168.984 0 0.731 0 1.463 0.024 2.17 23.609-12.898 50.584-20.651 79.289-21.553-46.981 30.891-77.89 83.651-77.89 143.433 0 31.598 8.628 61.196 23.704 86.65 86.353-104.253 215.348-172.885 360.865-180.053-2.987 12.605-4.551 25.771-4.551 39.278 0 95.159 78.388 172.325 175.076 172.325 50.37 0 95.858-20.943 127.787-54.418 39.893 7.729 77.369 22.065 111.194 41.813-13.084-40.229-40.841-74.021-76.99-95.354 35.413 4.169 69.167 13.434 100.551 27.136-23.467-34.548-53.144-64.902-87.348-89.21 0.332-7.387 0.498-14.824 0.498-22.284 0-227.742-176.095-490.35-498.11-490.35z" />
<glyph unicode="&#xe982;" glyph-name="logo_vk_24" d="M915.69 673.016c3.904 19.855-4.694 30.984-25.026 30.984h-102.421c-23.454 0-32.059-10.325-39.092-25.419 0 0-54.284-125.738-121.666-201.282-21.628-24.424-25.425-31.77-37.365-31.77-9.633 0-14.074 8.157-14.074 30.189v193.031c0 27.009-3.089 35.253-25.018 35.253h-163.030c-12.577 0-20.978-6.961-20.978-17.045 0-25.436 38.31-31.176 38.31-100.096v-142.192c0-28.599-1.565-39.719-14.856-39.719-35.181 0-126.546 122.395-173.454 262.21-9.388 28.599-19.504 36.843-46.174 36.843h-102.158c-14.856 0-26.022-10.62-26.022-25.714 0-27.804 32.051-156.499 157.934-328.88 84.435-115.977 202.657-178.739 302.73-178.739 60.989 0 72.716 10.758 72.716 36.98v88.968c0 22.24 8.598 31.778 21.107 31.778 14.074 0 34.844-5.033 92.886-63.195 68.797-66.728 73.491-94.532 111.026-94.532h114.922c11.735 0 22.679 5.564 22.679 25.419 0 26.222-33.624 73.087-85.225 128.695-21.107 28.599-55.513 59.574-66.458 73.874-15.638 16.684-10.945 26.222 0 43.693 0 0 116.972 175.060 128.707 230.668z" />
<glyph unicode="&#xe984;" glyph-name="mail_outline_56" d="M183.032 611.755l317.474-146.526c7.293-3.366 15.695-3.366 22.988 0l317.474 146.526c-0.716 30.841-3.709 43.168-10.438 55.75-6.043 11.299-14.583 19.839-25.882 25.882-14.672 7.847-28.997 10.613-72.736 10.613h-439.823c-43.739 0-58.064-2.766-72.736-10.613-11.299-6.043-19.839-14.583-25.882-25.882-6.729-12.582-9.722-24.909-10.438-55.75zM182.857 551.417v-250.186c0-43.739 2.766-58.064 10.613-72.736 6.043-11.299 14.583-19.839 25.882-25.882 14.672-7.847 28.997-10.613 72.736-10.613h439.823c43.739 0 58.064 2.766 72.736 10.613 11.299 6.043 19.839 14.583 25.882 25.882 7.847 14.672 10.613 28.997 10.613 72.736v250.186l-294.66-135.997c-21.879-10.098-47.086-10.098-68.965 0l-294.66 135.997zM896 594.904c0.009-0.401 0.009-0.802 0-1.202v-292.471c0-57.057-5.941-77.748-17.096-98.607s-27.526-37.23-48.385-48.385c-20.859-11.156-41.55-17.096-98.607-17.096h-439.823c-57.057 0-77.748 5.941-98.607 17.096s-37.23 27.526-48.385 48.385c-11.156 20.859-17.096 41.55-17.096 98.607v292.471c-0.009 0.4-0.009 0.801 0 1.202 0.009 56.954 5.95 77.628 17.096 98.471 11.156 20.859 27.526 37.23 48.385 48.385s41.55 17.096 98.607 17.096h439.823c57.057 0 77.748-5.941 98.607-17.096s37.23-27.526 48.385-48.385c11.147-20.843 17.087-41.517 17.096-98.471z" />
<glyph unicode="&#xe985;" glyph-name="market_24" d="M682.667 618.667h88.489c22.295 0 40.831-17.165 42.541-39.394l32.569-423.394c3.615-46.989-31.548-88.012-78.537-91.627-2.178-0.168-4.361-0.251-6.545-0.251h-498.368c-47.128 0-85.333 38.205-85.333 85.333 0 2.184 0.084 4.367 0.251 6.545l32.569 423.394c1.71 22.229 20.246 39.394 42.541 39.394h88.489v42.667c0 94.257 76.41 170.667 170.667 170.667s170.667-76.41 170.667-170.667v-42.667zM418.133 618.667h187.733v42.667c0 51.841-42.026 93.867-93.867 93.867s-93.867-42.026-93.867-93.867v-42.667z" />
<glyph unicode="&#xe986;" glyph-name="market_outline_24" d="M512 810.667c-58.91 0-106.667-47.756-106.667-106.667h213.333c0 58.91-47.756 106.667-106.667 106.667zM704 704h14.933c72.121 0.005 132.206-55.275 138.197-127.147l29.909-359.125c4.212-50.533-12.928-100.521-47.261-137.838s-82.724-58.553-133.432-58.557h-388.693c-50.708 0.004-99.098 21.24-133.432 58.557s-51.473 87.305-47.261 137.838l29.909 359.125c5.993 71.888 66.102 127.174 138.24 127.147h14.891c0 106.039 85.961 192 192 192s192-85.961 192-192zM305.067 618.667c-27.74 0.007-50.855-21.252-53.163-48.896l-29.867-359.125c-2.23-26.738 6.832-53.19 24.989-72.944s43.753-31.008 70.584-31.035h388.693c26.846 0.003 52.465 11.246 70.641 31.003s27.249 46.222 25.018 72.975l-29.909 359.125c-2.307 27.628-25.396 48.881-53.12 48.896h-413.867z" />
<glyph unicode="&#xe988;" glyph-name="mention_24" d="M512.198 60.416c-60.804 0-113.874 12.293-159.213 36.879s-80.366 59.482-105.085 104.688c-24.718 45.206-37.077 97.946-37.077 158.222v21.81c0 60.011 12.888 113.28 38.663 159.808s61.993 82.68 108.654 108.455c46.66 25.776 99.995 38.663 160.006 38.663h3.172c56.045 0 106.208-11.566 150.489-34.698s78.912-55.12 103.895-95.964c24.983-40.844 37.474-87.174 37.474-138.989v-19.827c0-35.425-5.816-66.752-17.448-93.981s-27.89-48.445-48.775-63.646c-20.885-15.201-44.942-22.801-72.171-22.801-24.586 0-45.735 5.155-63.447 15.465s-28.287 23.793-31.724 40.448h-3.965c-2.908-10.31-8.724-19.761-17.448-28.353s-19.365-15.333-31.922-20.224c-12.557-4.891-25.709-7.336-39.456-7.336-21.678 0-40.58 5.287-56.706 15.862s-28.551 25.643-37.275 45.206c-8.724 19.563-13.086 42.695-13.086 69.396v39.655c0 25.908 4.428 48.511 13.284 67.809s21.546 34.103 38.068 44.413c16.523 10.31 35.887 15.465 58.094 15.465 19.563 0 36.746-4.825 51.551-14.474s24.586-22.273 29.344-37.87h3.172v10.31c0 10.575 2.908 18.968 8.724 25.181s13.747 9.319 23.793 9.319c9.782 0 17.58-3.106 23.396-9.319s8.724-14.606 8.724-25.181v-158.618c0-13.483 4.098-24.255 12.293-32.318s18.902-12.095 32.12-12.095c14.011 0 26.304 5.419 36.879 16.258s18.704 26.238 24.388 46.198c5.684 19.96 8.526 43.289 8.526 69.99v13.086c0 41.505-9.847 78.648-29.543 111.429s-47.057 58.424-82.085 76.93c-35.028 18.506-74.749 27.758-119.162 27.758h-3.172c-48.114 0-90.677-10.574-127.688-31.724s-65.76-50.956-86.249-89.421c-20.488-38.465-30.732-82.68-30.732-132.645v-17.051c0-49.701 9.914-93.254 29.741-130.662s47.916-66.223 84.266-86.447c36.35-20.224 78.714-30.336 127.093-30.336h3.172c17.977 0 40.315 1.983 67.016 5.948 14.011 1.851 23.132 2.776 27.362 2.776 7.667 0 14.011-2.313 19.034-6.94s7.534-10.508 7.534-17.646c0-7.138-2.115-13.218-6.345-18.241s-10.31-8.592-18.241-10.707c-25.643-6.609-58.424-9.914-98.343-9.914h-3.569zM448.751 358.619c0-26.701 5.089-46.991 15.267-60.87s25.181-20.819 45.008-20.819c19.563 0 34.499 6.675 44.81 20.026s15.465 32.715 15.465 58.094v32.12c0 23.264-5.485 41.637-16.457 55.12s-25.841 20.224-44.611 20.224c-18.77 0-33.376-7.072-43.818-21.215s-15.664-33.905-15.664-59.284v-23.396z" />
<glyph unicode="&#xe98a;" glyph-name="mention_outline_20" d="M599.040 586.24v15.36c0 21.208 17.192 38.4 38.4 38.4s38.4-17.192 38.4-38.4v-204.8c0-33.482 11.894-48.042 23.040-58.88s26.773-15.433 44.75-15.433c19.055 0 36.288 2.584 52.53 17.993s28.11 34.612 35.84 61.44c7.73 26.828 12.8 62.7 12.8 98.588v17.589c0 55.787-16.735 108.562-43.52 152.623s-67.561 74.967-115.2 99.84c-47.639 24.873-101.004 35.84-161.406 35.84h-4.314c-65.436 0-124.424-12.533-174.759-40.96s-87.336-66.059-115.2-117.76c-27.864-51.701-46.080-113.060-46.080-180.218v-22.919c0-66.803 16.772-128.024 43.737-178.304s65.546-85.457 114.983-112.64c49.436-27.183 106.67-41.646 172.465-41.646h4.314c24.448 0 55.707 2.524 92.020 7.854 19.055 2.487 30.087 3.871 35.84 3.871 10.427 0 19.549-3.109 26.38-9.327s10.247-15.158 10.247-24.752c0-9.594-2.876-16.733-8.629-23.484s-14.022-11.548-24.808-14.391c-34.875-8.883-79.457-13.325-133.747-13.325h-4.854c-82.693 0-153.649 15.594-215.31 48.64s-109.743 80.038-143.36 140.8c-33.617 60.762-51.2 132.49-51.2 213.506v29.315c0 80.661 17.527 152.259 52.582 214.798s84.311 111.13 147.769 145.775c63.458 34.645 135.994 51.967 217.608 51.967h4.314c76.222 0 144.443-15.546 204.665-46.637s107.321-74.086 141.297-128.985c33.976-54.899 50.964-117.17 50.964-186.815v-26.65c0-35.872-7.91-89.721-23.729-126.32s-32.347-65.76-60.751-86.192c-28.403-20.432-60.248-33.28-97.28-33.28-33.437 0-56.686 8.331-81.92 25.6s-40.493 43.39-43.729 56.32c-5.635-12.426-21.206-29.412-33.071-40.96s-27.507-21.247-44.585-27.821c-17.078-6.574-37.583-9.86-56.279-9.86-29.482 0-57.69 7.107-79.622 21.32s-38.83 34.467-50.694 60.762c-11.865 26.295-17.14 57.951-17.14 93.84v52.734c0 34.823 5.365 65.203 17.409 91.142s29.302 45.838 51.773 59.696c22.471 13.858 48.807 21.708 79.008 21.708 26.606 0 54.396-7.405 74.53-20.375s34.937-29.945 43.52-50.901v4.716zM505.6 576c-45.95 0-83.2-37.25-83.2-83.2v-79.36c0-45.95 37.25-83.2 83.2-83.2s83.2 37.25 83.2 83.2v79.36c0 45.95-37.25 83.2-83.2 83.2z" />
<glyph unicode="&#xe98c;" glyph-name="menu_28" d="M192 722.286h640c25.247 0 45.714-20.467 45.714-45.714s-20.467-45.714-45.714-45.714h-640c-25.247 0-45.714 20.467-45.714 45.714s20.467 45.714 45.714 45.714zM192 484.571h640c25.247 0 45.714-20.467 45.714-45.714s-20.467-45.714-45.714-45.714h-640c-25.247 0-45.714 20.467-45.714 45.714s20.467 45.714 45.714 45.714zM192 246.857h640c25.247 0 45.714-20.467 45.714-45.714s-20.467-45.714-45.714-45.714h-640c-25.247 0-45.714 20.467-45.714 45.714s20.467 45.714 45.714 45.714z" />
<glyph unicode="&#xe98d;" glyph-name="message_24" d="M393.811 140.821c-44.853-39.883-119.589-72.937-224.207-99.16-4.515-1.132-9.292-0.499-13.356 1.77-8.816 4.921-11.973 16.058-7.051 24.873l-0.004 0.002c38.161 68.358 60.82 123.075 67.978 164.151-68.423 61.383-110.505 144.879-110.505 236.875 0 188.513 176.698 341.333 394.667 341.333s394.667-152.82 394.667-341.333c0-188.513-176.698-341.333-394.667-341.333-37.273 0-73.34 4.469-107.523 12.821z" />
<glyph unicode="&#xe98f;" glyph-name="message_outline_20" d="M349.617 153.523c10.486 11.857 27.174 16.065 42.028 10.597 41.633-15.324 86.606-23.32 133.155-23.32 193.139 0 345.6 137.918 345.6 307.2s-152.461 307.2-345.6 307.2c-193.139 0-345.6-137.918-345.6-307.2 0-61.992 20.442-121.186 58.338-171.471 5.431-7.206 8.15-16.094 7.682-25.105-2.012-38.695-20.607-91.391-55.515-160.484 75.94 5.912 128.721 27.316 159.912 62.583zM165.993 12.784c-10.69-0.325-21.281 2.135-30.733 7.14-30.1 15.938-41.58 53.259-25.643 83.358 32.967 62.267 52.021 109.565 57.406 139.741-41.924 60.656-64.623 131.253-64.623 204.976 0 213.51 188.467 384 422.4 384s422.4-170.49 422.4-384c0-213.51-188.467-384-422.4-384-47.002 0-92.833 6.857-136.177 20.13-51.034-45.134-125.742-68.399-222.629-71.345z" />
<glyph unicode="&#xe990;" glyph-name="message_read_outline_56" d="M403.493 193.946c6.375 4.354 14.29 5.821 21.801 4.039 30.775-7.3 62.755-11.041 95.339-11.041 197.461 0 356.062 137.17 356.062 304.242 0 35.084-6.951 69.328-20.412 101.706-5.815 13.988 0.81 30.041 14.798 35.856s30.041-0.81 35.856-14.798c16.212-38.996 24.614-80.391 24.614-122.764 0-199.281-184.788-359.099-410.919-359.099-32.761 0-65.032 3.35-96.332 9.915-48.255-30.407-115.119-55.798-200.811-76.642-11.293-2.747-23.209-1.053-33.289 4.733-21.717 12.466-29.217 40.177-16.751 61.895 24.142 42.059 41.716 78.336 52.732 108.626-73.895 66.272-116.469 155.332-116.469 250.573 0 199.281 184.788 359.099 410.919 359.099 82.301 0 161.1-21.184 228.133-60.322 13.082-7.638 17.495-24.435 9.857-37.517s-24.435-17.495-37.517-9.857c-58.612 34.221-127.862 52.838-200.473 52.838-197.461 0-356.062-137.17-356.062-304.242 0-84.222 40.345-163.191 110.786-220.447 8.647-7.028 12.182-18.59 8.945-29.252-10.081-33.208-27.541-72.266-52.369-117.41 75.341 19.816 132.597 43.254 171.559 69.868zM844.605 759.966c10.712 10.712 28.078 10.712 38.79 0s10.712-28.078 0-38.79l-333.714-333.714c-10.712-10.712-28.078-10.712-38.79 0l-137.143 137.143c-10.712 10.712-10.712 28.078 0 38.79s28.078 10.712 38.79 0l117.748-117.748 314.319 314.319z" />
<glyph unicode="&#xe991;" glyph-name="messages_28" d="M144.533 45.671c-8.137-0.319-16.236 1.261-23.655 4.615-26.386 11.928-38.108 42.986-26.183 69.383 33.308 73.679 51.676 127.915 55.356 160.125-38.081 55.821-58.622 119.818-58.622 186.492 0 203.337 189.44 365.714 420.571 365.714s420.571-162.377 420.571-365.714c0-203.337-189.44-365.714-420.571-365.714-49.545 0-97.94 7.452-143.517 21.818-51.272-47.756-126.465-72.895-223.95-76.718zM330.481 188.29c9.989 11.717 26.247 15.922 40.664 10.519 43.936-16.465 91.64-25.095 140.855-25.095 193.023 0 347.429 132.347 347.429 292.571s-154.405 292.571-347.429 292.571c-193.023 0-347.429-132.347-347.429-292.571 0-55.139 18.17-108.066 52.159-154.086 4.673-6.327 7.181-13.992 7.153-21.857-0.136-38.293-16.429-93.866-48.633-169.212 72.655 7.609 123.892 30.4 155.23 67.159z" />
<glyph unicode="&#xe992;" glyph-name="messages_outline_28" d="M259.495 69.153c-10.737-2.609-22.065-0.995-31.646 4.508-20.644 11.857-27.767 38.204-15.91 58.848 20.859 36.344 36.003 67.448 45.675 93.516-64.843 58.898-102.185 137.709-102.185 221.972 0 177.689 164.549 320.003 365.714 320.003s365.714-142.314 365.714-320.003c0-177.689-164.549-320.003-365.714-320.003-28.676 0-56.933 2.888-84.361 8.549-42.873-26.763-101.897-49.073-177.287-67.391zM415.987 188.465c6.375 4.354 14.29 5.821 21.801 4.039 26.903-6.381 54.863-9.652 83.355-9.652 172.495 0 310.857 119.666 310.857 265.146s-138.362 265.146-310.857 265.146c-172.495 0-310.857-119.666-310.857-265.146 0-73.285 35.127-142.039 96.533-191.952 8.647-7.028 12.182-18.59 8.945-29.252-8.467-27.889-22.752-60.344-42.845-97.562 62.549 16.974 110.3 36.851 143.069 59.234z" />
<glyph unicode="&#xe993;" glyph-name="money_circle_24" d="M512 21.333c-235.641 0-426.667 191.025-426.667 426.667s191.025 426.667 426.667 426.667c235.641 0 426.667-191.025 426.667-426.667s-191.025-426.667-426.667-426.667zM587.507 277.509c9.426 0 17.067 7.641 17.067 17.067v19.2c0 9.426-7.641 17.067-17.067 17.067h-118.267v53.287h88.667c93.333 0 155 53.693 155 140.359 0 87-60.333 160.307-152.667 160.307h-148.6c-9.426 0-17.067-7.641-17.067-17.067v-220.267h-47.267c-9.426 0-17.067-7.641-17.067-17.067v-28.533c0-9.426 7.641-17.067 17.067-17.067h47.267v-53.953h-47.267c-9.426 0-17.067-7.641-17.067-17.067v-19.2c0-9.426 7.641-17.067 17.067-17.067h47.267v-57.776c0-9.426 7.641-17.067 17.067-17.067h40.533c9.426 0 17.067 7.641 17.067 17.067v57.776h118.267zM469.24 618.796h70c65 0 97.333-33 97.333-85.333s-32.333-85.333-97.333-85.333h-70v170.667z" />
<glyph unicode="&#xe995;" glyph-name="money_transfer_28" d="M694.857 265.143v107.050c0 10.149 8.228 18.377 18.377 18.377 4.299 0 8.462-1.507 11.765-4.259l172.345-143.621c7.797-6.497 8.85-18.085 2.353-25.882-0.712-0.854-1.499-1.641-2.353-2.353l-172.345-143.621c-7.797-6.497-19.385-5.444-25.882 2.353-2.752 3.303-4.259 7.466-4.259 11.765v107.050h-474.88c-60.896 0-110.263 49.366-110.263 110.263v401.195c0 60.896 49.366 110.263 110.263 110.263h584.046c60.896 0 110.263-49.366 110.263-110.263v-355.873l-73.143 60.952v76.034h-658.286v-182.674c0-20.299 16.455-36.754 36.754-36.754h475.246zM841.143 630.857v72.96c0 20.299-16.455 36.754-36.754 36.754h-584.777c-20.299 0-36.754-16.455-36.754-36.754v-72.96h658.286z" />
<glyph unicode="&#xe997;" glyph-name="money_transfer_outline_56" d="M820.639 246.857l-99.462 99.462c-10.712 10.712-10.712 28.078 0 38.79s28.078 10.712 38.79 0l146.286-146.286c10.712-10.712 10.712-28.078 0-38.79l-146.286-146.286c-10.712-10.712-28.078-10.712-38.79 0s-10.712 28.078 0 38.79l99.462 99.462h-570.277c-48.906 0-66.641 5.092-84.52 14.654s-31.911 23.594-41.473 41.473c-9.562 17.879-14.654 35.614-14.654 84.52v340.419c0 48.906 5.092 66.641 14.654 84.52s23.594 31.911 41.473 41.473c17.879 9.562 35.614 14.654 84.52 14.654h523.277c48.906 0 66.641-5.092 84.52-14.654s31.911-23.594 41.473-41.473c9.562-17.879 14.654-35.614 14.654-84.52v-307.353c0-15.148-12.28-27.429-27.429-27.429s-27.429 12.28-27.429 27.429v210.286h-694.857v-258.819c0-24.453 2.546-33.32 7.327-42.26s11.797-15.956 20.737-20.737c8.94-4.781 17.807-7.327 42.26-7.327h585.744zM859.429 630.857v57.676c0 24.453-2.546 33.32-7.327 42.26s-11.797 15.956-20.737 20.737c-8.94 4.781-17.807 7.327-42.26 7.327h-554.21c-24.453 0-33.32-2.546-42.26-7.327s-15.956-11.797-20.737-20.737c-4.781-8.94-7.327-17.807-7.327-42.26v-57.676h694.857z" />
<glyph unicode="&#xe998;" glyph-name="more_28" d="M201.143 667.429c-20.198 0-36.571 16.374-36.571 36.571s16.374 36.571 36.571 36.571h621.714c20.198 0 36.571-16.374 36.571-36.571s-16.374-36.571-36.571-36.571h-621.714zM201.143 411.429c-20.198 0-36.571 16.374-36.571 36.571s16.374 36.571 36.571 36.571h621.714c20.198 0 36.571-16.374 36.571-36.571s-16.374-36.571-36.571-36.571h-621.714zM201.143 155.429c-20.198 0-36.571 16.374-36.571 36.571s16.374 36.571 36.571 36.571h621.714c20.198 0 36.571-16.374 36.571-36.571s-16.374-36.571-36.571-36.571h-621.714z" />
<glyph unicode="&#xe999;" glyph-name="more_horizontal_16" d="M832 352c-53.019 0-96 42.981-96 96s42.981 96 96 96c53.019 0 96-42.981 96-96s-42.981-96-96-96zM512 352c-53.019 0-96 42.981-96 96s42.981 96 96 96c53.019 0 96-42.981 96-96s-42.981-96-96-96zM192 352c-53.019 0-96 42.981-96 96s42.981 96 96 96c53.019 0 96-42.981 96-96s-42.981-96-96-96z" />
<glyph unicode="&#xe99c;" glyph-name="more_vertical_16" d="M512 672c52.8 0 96 43.2 96 96s-43.2 96-96 96c-52.8 0-96-43.2-96-96s43.2-96 96-96v0zM512 544c-52.8 0-96-43.2-96-96s43.2-96 96-96c52.8 0 96 43.2 96 96s-43.2 96-96 96v0zM512 224c-52.8 0-96-43.2-96-96s43.2-96 96-96c52.8 0 96 43.2 96 96s-43.2 96-96 96v0z" />
<glyph unicode="&#xe99e;" glyph-name="music_24" d="M810.667 531.925v-189.973c0-148.116-52.732-180.034-139.981-191.765-45.327-6.095-116.019 17.674-116.019 103.78 0 42.061 35.031 83.846 78.757 92.441 40.551 7.971-13.152-2.451 78.587 15.019 14.778 2.814 13.531 13.339 13.531 24.743 0 9.255-0.047 93.83-0.077 145.754h-0.132l0.209 109.913c0 10.093-3.118 14.849-14.717 11.948l-311.273-56.724c-12.998-3.251-15.552-8.649-15.552-21.062v-319.381c0-148.116-52.732-180.034-139.981-191.765-45.327-6.095-116.019 17.674-116.019 103.78 0 42.061 35.031 83.846 78.757 92.441 40.551 7.971-13.152-2.451 78.587 15.019 14.778 2.814 13.531 13.339 13.531 24.743 0 13.458-0.1 186.18-0.1 186.18l0.070 0.003-0.179 108.194c0 0-0.174 67.144 0 100.715 0.209 40.153 21.772 54.909 85.333 67.982l341.333 63.044c0 0 85.333 26.678 85.333-42.685v-252.347z" />
<glyph unicode="&#xe9a1;" glyph-name="mute_24" d="M370.993 614.191l-144.835 144.868c-16.661 16.665-16.659 43.68 0.003 60.343 16.66 16.66 43.672 16.66 60.333 0 0.001-0.001 0.002-0.002 0.003-0.003l596.765-596.902c16.661-16.665 16.659-43.68-0.003-60.343-16.66-16.66-43.672-16.66-60.333 0-0.001 0.001-0.002 0.002-0.003 0.003l-140.257 140.289v-195.779c0-23.564-19.103-42.667-42.667-42.667-27.369 0-53.668 10.63-73.351 29.647l-234.271 226.353h-119.046c-47.128 0-85.333 38.205-85.333 85.333v85.333c0 47.128 38.205 85.333 85.333 85.333h117.973l39.687 38.191zM493.838 732.405l72.752 70.010c19.725 18.982 46.036 29.585 73.41 29.585 23.564 0 42.667-19.103 42.667-42.667v-245.757l-188.829 188.829z" />
<glyph unicode="&#xe9a2;" glyph-name="muted_16" d="M489.949 650.199l182.839 150.066c17.238 0 31.212-13.974 31.212-31.212v-332.906l166.156-166.156c18.745-18.745 18.745-49.137 0-67.882s-49.137-18.745-67.882 0l-520.431 520.431c-18.745 18.745-18.745 49.137 0 67.882s49.137 18.745 67.882 0l140.223-140.223zM300.164 608.219l403.836-403.836v-108.906c0-17.238-13.974-31.212-31.212-31.212l-232.67 223.273-184.29 0.494c-35.279 0.095-63.828 28.721-63.828 64l0.016 192.171c0 35.34 28.644 63.991 63.984 64l44.164 0.015z" />
<glyph unicode="&#xe9a3;" glyph-name="newsfeed_24" d="M298.667 874.667h426.667c94.257 0 170.667-76.41 170.667-170.667v-512c0-94.257-76.41-170.667-170.667-170.667h-426.667c-94.257 0-170.667 76.41-170.667 170.667v512c0 94.257 76.41 170.667 170.667 170.667zM298.667 789.333c-47.128 0-85.333-38.205-85.333-85.333v-512c0-47.128 38.205-85.333 85.333-85.333h426.667c47.128 0 85.333 38.205 85.333 85.333v512c0 47.128-38.205 85.333-85.333 85.333h-426.667zM341.333 704h170.667c23.564 0 42.667-19.103 42.667-42.667s-19.103-42.667-42.667-42.667h-170.667c-23.564 0-42.667 19.103-42.667 42.667s19.103 42.667 42.667 42.667zM341.333 533.333h341.333c23.564 0 42.667-19.103 42.667-42.667v-256c0-23.564-19.103-42.667-42.667-42.667h-341.333c-23.564 0-42.667 19.103-42.667 42.667v256c0 23.564 19.103 42.667 42.667 42.667z" />
<glyph unicode="&#xe9a5;" glyph-name="newsfeed_outline_20" d="M844.581 627.2c-1.049 46.416-5.993 67.307-17.468 88.764-10.923 20.425-26.724 36.225-47.149 47.149-24.494 13.1-48.25 17.687-110.079 17.687h-315.77c-61.829 0-85.585-4.588-110.079-17.687-20.425-10.923-36.225-26.724-47.149-47.149-11.475-21.457-16.419-42.348-17.468-88.764h665.162zM844.8 550.4h-665.6v-260.285c0-61.829 4.588-85.585 17.687-110.079 10.923-20.425 26.724-36.225 47.149-47.149 24.494-13.1 48.25-17.687 110.079-17.687h315.77c61.829 0 85.585 4.588 110.079 17.687 20.425 10.923 36.225 26.724 47.149 47.149 13.1 24.494 17.687 48.25 17.687 110.079v260.285zM354.115 857.6h315.77c73.423 0 109.157-6.9 146.298-26.764 33.809-18.081 60.572-44.844 78.653-78.653 19.863-37.141 26.764-72.875 26.764-146.298v-315.77c0-73.423-6.9-109.157-26.764-146.298-18.081-33.809-44.844-60.572-78.653-78.653-37.141-19.863-72.875-26.764-146.298-26.764h-315.77c-73.423 0-109.157 6.9-146.298 26.764-33.809 18.081-60.572 44.844-78.653 78.653-19.863 37.141-26.764 72.875-26.764 146.298v315.77c0 73.423 6.9 109.157 26.764 146.298 18.081 33.809 44.844 60.572 78.653 78.653 37.141 19.863 72.875 26.764 146.298 26.764z" />
<glyph unicode="&#xe9a6;" glyph-name="note_24" d="M256 832h512c70.692 0 128-57.308 128-128v-512c0-70.692-57.308-128-128-128h-512c-70.692 0-128 57.308-128 128v512c0 70.692 57.308 128 128 128zM341.333 405.333h341.333c23.564 0 42.667 19.103 42.667 42.667v0c0 23.564-19.103 42.667-42.667 42.667h-341.333c-23.564 0-42.667-19.103-42.667-42.667v0c0-23.564 19.103-42.667 42.667-42.667zM341.333 576h341.333c23.564 0 42.667 19.103 42.667 42.667v0c0 23.564-19.103 42.667-42.667 42.667h-341.333c-23.564 0-42.667-19.103-42.667-42.667v0c0-23.564 19.103-42.667 42.667-42.667zM341.333 234.667h213.333c23.564 0 42.667 19.103 42.667 42.667v0c0 23.564-19.103 42.667-42.667 42.667h-213.333c-23.564 0-42.667-19.103-42.667-42.667v0c0-23.564 19.103-42.667 42.667-42.667z" />
</font>
</defs>
</svg>
